ISO-10303-21;
HEADER;
FILE_DESCRIPTION(('FreeCAD Model'),'2;1');
FILE_NAME('Open CASCADE Shape Model','2026-08-20T23:39:31',('FreeCAD'),(
    'FreeCAD'),'Open CASCADE STEP processor 7.8','FreeCAD','Unknown');
FILE_SCHEMA(('AUTOMOTIVE_DESIGN { 1 0 10303 214 1 1 1 1 }'));
ENDSEC;
DATA;
#1 = APPLICATION_PROTOCOL_DEFINITION('international standard',
  'automotive_design',2000,#2);
#2 = APPLICATION_CONTEXT(
  'core data for automotive mechanical design processes');
#3 = SHAPE_DEFINITION_REPRESENTATION(#4,#10);
#4 = PRODUCT_DEFINITION_SHAPE('','',#5);
#5 = PRODUCT_DEFINITION('design','',#6,#9);
#6 = PRODUCT_DEFINITION_FORMATION('','',#7);
#7 = PRODUCT('Open CASCADE STEP translator 7.8 2',
  'Open CASCADE STEP translator 7.8 2','',(#8));
#8 = PRODUCT_CONTEXT('',#2,'mechanical');
#9 = PRODUCT_DEFINITION_CONTEXT('part definition',#2,'design');
#10 = ADVANCED_BREP_SHAPE_REPRESENTATION('',(#11,#15),#1385);
#11 = AXIS2_PLACEMENT_3D('',#12,#13,#14);
#12 = CARTESIAN_POINT('',(0.,0.,0.));
#13 = DIRECTION('',(0.,0.,1.));
#14 = DIRECTION('',(1.,0.,-0.));
#15 = MANIFOLD_SOLID_BREP('',#16);
#16 = CLOSED_SHELL('',(#17,#89,#143,#192,#216,#258,#282,#420,#437,#449,
    #466,#483,#523,#560,#592,#616,#640,#658,#683,#707,#725,#840,#955,
    #1088,#1226,#1246,#1277,#1297,#1323,#1335,#1353,#1373));
#17 = ADVANCED_FACE('',(#18),#84,.T.);
#18 = FACE_BOUND('',#19,.T.);
#19 = EDGE_LOOP('',(#20,#30,#38,#46,#54,#62,#70,#78));
#20 = ORIENTED_EDGE('',*,*,#21,.F.);
#21 = EDGE_CURVE('',#22,#24,#26,.T.);
#22 = VERTEX_POINT('',#23);
#23 = CARTESIAN_POINT('',(-506.931671,229.947678,0.));
#24 = VERTEX_POINT('',#25);
#25 = CARTESIAN_POINT('',(-506.931671,180.797678,0.));
#26 = LINE('',#27,#28);
#27 = CARTESIAN_POINT('',(-506.931671,229.947678,0.));
#28 = VECTOR('',#29,1.);
#29 = DIRECTION('',(0.,-1.,0.));
#30 = ORIENTED_EDGE('',*,*,#31,.T.);
#31 = EDGE_CURVE('',#22,#32,#34,.T.);
#32 = VERTEX_POINT('',#33);
#33 = CARTESIAN_POINT('',(-506.931671,229.947678,20.));
#34 = LINE('',#35,#36);
#35 = CARTESIAN_POINT('',(-506.931671,229.947678,0.));
#36 = VECTOR('',#37,1.);
#37 = DIRECTION('',(0.,0.,1.));
#38 = ORIENTED_EDGE('',*,*,#39,.T.);
#39 = EDGE_CURVE('',#32,#40,#42,.T.);
#40 = VERTEX_POINT('',#41);
#41 = CARTESIAN_POINT('',(-506.931671,126.947678,20.));
#42 = LINE('',#43,#44);
#43 = CARTESIAN_POINT('',(-506.931671,229.947678,20.));
#44 = VECTOR('',#45,1.);
#45 = DIRECTION('',(0.,-1.,0.));
#46 = ORIENTED_EDGE('',*,*,#47,.F.);
#47 = EDGE_CURVE('',#48,#40,#50,.T.);
#48 = VERTEX_POINT('',#49);
#49 = CARTESIAN_POINT('',(-506.931671,126.947678,0.));
#50 = LINE('',#51,#52);
#51 = CARTESIAN_POINT('',(-506.931671,126.947678,0.));
#52 = VECTOR('',#53,1.);
#53 = DIRECTION('',(0.,0.,1.));
#54 = ORIENTED_EDGE('',*,*,#55,.F.);
#55 = EDGE_CURVE('',#56,#48,#58,.T.);
#56 = VERTEX_POINT('',#57);
#57 = CARTESIAN_POINT('',(-506.931671,176.097678,0.));
#58 = LINE('',#59,#60);
#59 = CARTESIAN_POINT('',(-506.931671,229.947678,0.));
#60 = VECTOR('',#61,1.);
#61 = DIRECTION('',(0.,-1.,0.));
#62 = ORIENTED_EDGE('',*,*,#63,.T.);
#63 = EDGE_CURVE('',#56,#64,#66,.T.);
#64 = VERTEX_POINT('',#65);
#65 = CARTESIAN_POINT('',(-506.931671,176.097678,10.1));
#66 = LINE('',#67,#68);
#67 = CARTESIAN_POINT('',(-506.931671,176.097678,-5.E-02));
#68 = VECTOR('',#69,1.);
#69 = DIRECTION('',(0.,0.,1.));
#70 = ORIENTED_EDGE('',*,*,#71,.F.);
#71 = EDGE_CURVE('',#72,#64,#74,.T.);
#72 = VERTEX_POINT('',#73);
#73 = CARTESIAN_POINT('',(-506.931671,180.797678,10.1));
#74 = LINE('',#75,#76);
#75 = CARTESIAN_POINT('',(-506.931671,203.022678,10.1));
#76 = VECTOR('',#77,1.);
#77 = DIRECTION('',(0.,-1.,0.));
#78 = ORIENTED_EDGE('',*,*,#79,.F.);
#79 = EDGE_CURVE('',#24,#72,#80,.T.);
#80 = LINE('',#81,#82);
#81 = CARTESIAN_POINT('',(-506.931671,180.797678,-5.E-02));
#82 = VECTOR('',#83,1.);
#83 = DIRECTION('',(0.,0.,1.));
#84 = PLANE('',#85);
#85 = AXIS2_PLACEMENT_3D('',#86,#87,#88);
#86 = CARTESIAN_POINT('',(-506.931671,229.947678,0.));
#87 = DIRECTION('',(1.,0.,0.));
#88 = DIRECTION('',(0.,-1.,0.));
#89 = ADVANCED_FACE('',(#90),#138,.T.);
#90 = FACE_BOUND('',#91,.T.);
#91 = EDGE_LOOP('',(#92,#100,#101,#109,#117,#123,#124,#132));
#92 = ORIENTED_EDGE('',*,*,#93,.T.);
#93 = EDGE_CURVE('',#94,#22,#96,.T.);
#94 = VERTEX_POINT('',#95);
#95 = CARTESIAN_POINT('',(-396.931671,229.947678,0.));
#96 = LINE('',#97,#98);
#97 = CARTESIAN_POINT('',(-396.931671,229.947678,0.));
#98 = VECTOR('',#99,1.);
#99 = DIRECTION('',(-1.,0.,0.));
#100 = ORIENTED_EDGE('',*,*,#21,.T.);
#101 = ORIENTED_EDGE('',*,*,#102,.F.);
#102 = EDGE_CURVE('',#103,#24,#105,.T.);
#103 = VERTEX_POINT('',#104);
#104 = CARTESIAN_POINT('',(-502.931671,180.797678,0.));
#105 = LINE('',#106,#107);
#106 = CARTESIAN_POINT('',(-484.931671,180.797678,0.));
#107 = VECTOR('',#108,1.);
#108 = DIRECTION('',(-1.,0.,0.));
#109 = ORIENTED_EDGE('',*,*,#110,.F.);
#110 = EDGE_CURVE('',#111,#103,#113,.T.);
#111 = VERTEX_POINT('',#112);
#112 = CARTESIAN_POINT('',(-502.931671,176.097678,0.));
#113 = LINE('',#114,#115);
#114 = CARTESIAN_POINT('',(-502.931671,177.272678,0.));
#115 = VECTOR('',#116,1.);
#116 = DIRECTION('',(0.,1.,0.));
#117 = ORIENTED_EDGE('',*,*,#118,.T.);
#118 = EDGE_CURVE('',#111,#56,#119,.T.);
#119 = LINE('',#120,#121);
#120 = CARTESIAN_POINT('',(-484.931671,176.097678,0.));
#121 = VECTOR('',#122,1.);
#122 = DIRECTION('',(-1.,0.,0.));
#123 = ORIENTED_EDGE('',*,*,#55,.T.);
#124 = ORIENTED_EDGE('',*,*,#125,.T.);
#125 = EDGE_CURVE('',#48,#126,#128,.T.);
#126 = VERTEX_POINT('',#127);
#127 = CARTESIAN_POINT('',(-396.931671,126.947678,0.));
#128 = LINE('',#129,#130);
#129 = CARTESIAN_POINT('',(-506.931671,126.947678,0.));
#130 = VECTOR('',#131,1.);
#131 = DIRECTION('',(1.,0.,0.));
#132 = ORIENTED_EDGE('',*,*,#133,.T.);
#133 = EDGE_CURVE('',#126,#94,#134,.T.);
#134 = LINE('',#135,#136);
#135 = CARTESIAN_POINT('',(-396.931671,126.947678,0.));
#136 = VECTOR('',#137,1.);
#137 = DIRECTION('',(0.,1.,0.));
#138 = PLANE('',#139);
#139 = AXIS2_PLACEMENT_3D('',#140,#141,#142);
#140 = CARTESIAN_POINT('',(-451.931671,178.447678,0.));
#141 = DIRECTION('',(0.,0.,1.));
#142 = DIRECTION('',(1.,0.,0.));
#143 = ADVANCED_FACE('',(#144),#187,.F.);
#144 = FACE_BOUND('',#145,.F.);
#145 = EDGE_LOOP('',(#146,#156,#165,#173,#179,#180,#181));
#146 = ORIENTED_EDGE('',*,*,#147,.F.);
#147 = EDGE_CURVE('',#148,#150,#152,.T.);
#148 = VERTEX_POINT('',#149);
#149 = CARTESIAN_POINT('',(-516.9311709874,180.797678,-0.1));
#150 = VERTEX_POINT('',#151);
#151 = CARTESIAN_POINT('',(-502.931671,180.797678,-0.1));
#152 = LINE('',#153,#154);
#153 = CARTESIAN_POINT('',(-517.931671,180.797678,-0.1));
#154 = VECTOR('',#155,1.);
#155 = DIRECTION('',(1.,0.,0.));
#156 = ORIENTED_EDGE('',*,*,#157,.F.);
#157 = EDGE_CURVE('',#158,#148,#160,.T.);
#158 = VERTEX_POINT('',#159);
#159 = CARTESIAN_POINT('',(-516.931671,180.797678,0.));
#160 = CIRCLE('',#161,10.);
#161 = AXIS2_PLACEMENT_3D('',#162,#163,#164);
#162 = CARTESIAN_POINT('',(-506.931671,180.797678,0.));
#163 = DIRECTION('',(0.,-1.,0.));
#164 = DIRECTION('',(-1.1E-16,0.,1.));
#165 = ORIENTED_EDGE('',*,*,#166,.T.);
#166 = EDGE_CURVE('',#158,#167,#169,.T.);
#167 = VERTEX_POINT('',#168);
#168 = CARTESIAN_POINT('',(-516.931671,180.797678,10.1));
#169 = LINE('',#170,#171);
#170 = CARTESIAN_POINT('',(-516.931671,180.797678,-5.E-02));
#171 = VECTOR('',#172,1.);
#172 = DIRECTION('',(0.,0.,1.));
#173 = ORIENTED_EDGE('',*,*,#174,.T.);
#174 = EDGE_CURVE('',#167,#72,#175,.T.);
#175 = LINE('',#176,#177);
#176 = CARTESIAN_POINT('',(-517.931671,180.797678,10.1));
#177 = VECTOR('',#178,1.);
#178 = DIRECTION('',(1.,0.,0.));
#179 = ORIENTED_EDGE('',*,*,#79,.F.);
#180 = ORIENTED_EDGE('',*,*,#102,.F.);
#181 = ORIENTED_EDGE('',*,*,#182,.F.);
#182 = EDGE_CURVE('',#150,#103,#183,.T.);
#183 = LINE('',#184,#185);
#184 = CARTESIAN_POINT('',(-502.931671,180.797678,-0.1));
#185 = VECTOR('',#186,1.);
#186 = DIRECTION('',(0.,0.,1.));
#187 = PLANE('',#188);
#188 = AXIS2_PLACEMENT_3D('',#189,#190,#191);
#189 = CARTESIAN_POINT('',(-517.931671,180.797678,-0.1));
#190 = DIRECTION('',(0.,1.,0.));
#191 = DIRECTION('',(0.,0.,1.));
#192 = ADVANCED_FACE('',(#193),#211,.F.);
#193 = FACE_BOUND('',#194,.F.);
#194 = EDGE_LOOP('',(#195,#196,#204,#210));
#195 = ORIENTED_EDGE('',*,*,#174,.F.);
#196 = ORIENTED_EDGE('',*,*,#197,.T.);
#197 = EDGE_CURVE('',#167,#198,#200,.T.);
#198 = VERTEX_POINT('',#199);
#199 = CARTESIAN_POINT('',(-516.931671,176.097678,10.1));
#200 = LINE('',#201,#202);
#201 = CARTESIAN_POINT('',(-516.931671,203.022678,10.1));
#202 = VECTOR('',#203,1.);
#203 = DIRECTION('',(0.,-1.,0.));
#204 = ORIENTED_EDGE('',*,*,#205,.T.);
#205 = EDGE_CURVE('',#198,#64,#206,.T.);
#206 = LINE('',#207,#208);
#207 = CARTESIAN_POINT('',(-517.931671,176.097678,10.1));
#208 = VECTOR('',#209,1.);
#209 = DIRECTION('',(1.,0.,0.));
#210 = ORIENTED_EDGE('',*,*,#71,.F.);
#211 = PLANE('',#212);
#212 = AXIS2_PLACEMENT_3D('',#213,#214,#215);
#213 = CARTESIAN_POINT('',(-517.931671,176.097678,10.1));
#214 = DIRECTION('',(0.,0.,1.));
#215 = DIRECTION('',(1.,0.,0.));
#216 = ADVANCED_FACE('',(#217),#253,.T.);
#217 = FACE_BOUND('',#218,.T.);
#218 = EDGE_LOOP('',(#219,#229,#238,#244,#245,#246,#247));
#219 = ORIENTED_EDGE('',*,*,#220,.F.);
#220 = EDGE_CURVE('',#221,#223,#225,.T.);
#221 = VERTEX_POINT('',#222);
#222 = CARTESIAN_POINT('',(-516.9311709874,176.097678,-0.1));
#223 = VERTEX_POINT('',#224);
#224 = CARTESIAN_POINT('',(-502.931671,176.097678,-0.1));
#225 = LINE('',#226,#227);
#226 = CARTESIAN_POINT('',(-517.931671,176.097678,-0.1));
#227 = VECTOR('',#228,1.);
#228 = DIRECTION('',(1.,0.,0.));
#229 = ORIENTED_EDGE('',*,*,#230,.F.);
#230 = EDGE_CURVE('',#231,#221,#233,.T.);
#231 = VERTEX_POINT('',#232);
#232 = CARTESIAN_POINT('',(-516.931671,176.097678,0.));
#233 = CIRCLE('',#234,10.);
#234 = AXIS2_PLACEMENT_3D('',#235,#236,#237);
#235 = CARTESIAN_POINT('',(-506.931671,176.097678,0.));
#236 = DIRECTION('',(0.,-1.,0.));
#237 = DIRECTION('',(-1.1E-16,0.,1.));
#238 = ORIENTED_EDGE('',*,*,#239,.T.);
#239 = EDGE_CURVE('',#231,#198,#240,.T.);
#240 = LINE('',#241,#242);
#241 = CARTESIAN_POINT('',(-516.931671,176.097678,-5.E-02));
#242 = VECTOR('',#243,1.);
#243 = DIRECTION('',(0.,0.,1.));
#244 = ORIENTED_EDGE('',*,*,#205,.T.);
#245 = ORIENTED_EDGE('',*,*,#63,.F.);
#246 = ORIENTED_EDGE('',*,*,#118,.F.);
#247 = ORIENTED_EDGE('',*,*,#248,.F.);
#248 = EDGE_CURVE('',#223,#111,#249,.T.);
#249 = LINE('',#250,#251);
#250 = CARTESIAN_POINT('',(-502.931671,176.097678,-0.1));
#251 = VECTOR('',#252,1.);
#252 = DIRECTION('',(0.,0.,1.));
#253 = PLANE('',#254);
#254 = AXIS2_PLACEMENT_3D('',#255,#256,#257);
#255 = CARTESIAN_POINT('',(-517.931671,176.097678,-0.1));
#256 = DIRECTION('',(0.,1.,0.));
#257 = DIRECTION('',(0.,0.,1.));
#258 = ADVANCED_FACE('',(#259),#277,.T.);
#259 = FACE_BOUND('',#260,.T.);
#260 = EDGE_LOOP('',(#261,#262,#270,#276));
#261 = ORIENTED_EDGE('',*,*,#47,.T.);
#262 = ORIENTED_EDGE('',*,*,#263,.T.);
#263 = EDGE_CURVE('',#40,#264,#266,.T.);
#264 = VERTEX_POINT('',#265);
#265 = CARTESIAN_POINT('',(-396.931671,126.947678,20.));
#266 = LINE('',#267,#268);
#267 = CARTESIAN_POINT('',(-506.931671,126.947678,20.));
#268 = VECTOR('',#269,1.);
#269 = DIRECTION('',(1.,0.,0.));
#270 = ORIENTED_EDGE('',*,*,#271,.F.);
#271 = EDGE_CURVE('',#126,#264,#272,.T.);
#272 = LINE('',#273,#274);
#273 = CARTESIAN_POINT('',(-396.931671,126.947678,0.));
#274 = VECTOR('',#275,1.);
#275 = DIRECTION('',(0.,0.,1.));
#276 = ORIENTED_EDGE('',*,*,#125,.F.);
#277 = PLANE('',#278);
#278 = AXIS2_PLACEMENT_3D('',#279,#280,#281);
#279 = CARTESIAN_POINT('',(-506.931671,126.947678,0.));
#280 = DIRECTION('',(0.,1.,0.));
#281 = DIRECTION('',(1.,0.,0.));
#282 = ADVANCED_FACE('',(#283,#353,#364,#375,#386,#404),#415,.T.);
#283 = FACE_BOUND('',#284,.T.);
#284 = EDGE_LOOP('',(#285,#296,#304,#313,#321,#330,#338,#347));
#285 = ORIENTED_EDGE('',*,*,#286,.T.);
#286 = EDGE_CURVE('',#287,#289,#291,.T.);
#287 = VERTEX_POINT('',#288);
#288 = CARTESIAN_POINT('',(-386.931671,229.947678,20.));
#289 = VERTEX_POINT('',#290);
#290 = CARTESIAN_POINT('',(-396.931671,239.947678,20.));
#291 = CIRCLE('',#292,10.);
#292 = AXIS2_PLACEMENT_3D('',#293,#294,#295);
#293 = CARTESIAN_POINT('',(-396.931671,229.947678,20.));
#294 = DIRECTION('',(-0.,0.,1.));
#295 = DIRECTION('',(1.1E-16,-1.,0.));
#296 = ORIENTED_EDGE('',*,*,#297,.T.);
#297 = EDGE_CURVE('',#289,#298,#300,.T.);
#298 = VERTEX_POINT('',#299);
#299 = CARTESIAN_POINT('',(-506.931671,239.947678,20.));
#300 = LINE('',#301,#302);
#301 = CARTESIAN_POINT('',(-396.931671,239.947678,20.));
#302 = VECTOR('',#303,1.);
#303 = DIRECTION('',(-1.,0.,0.));
#304 = ORIENTED_EDGE('',*,*,#305,.F.);
#305 = EDGE_CURVE('',#306,#298,#308,.T.);
#306 = VERTEX_POINT('',#307);
#307 = CARTESIAN_POINT('',(-516.931671,229.947678,20.));
#308 = CIRCLE('',#309,10.);
#309 = AXIS2_PLACEMENT_3D('',#310,#311,#312);
#310 = CARTESIAN_POINT('',(-506.931671,229.947678,20.));
#311 = DIRECTION('',(-0.,0.,-1.));
#312 = DIRECTION('',(-1.1E-16,-1.,0.));
#313 = ORIENTED_EDGE('',*,*,#314,.T.);
#314 = EDGE_CURVE('',#306,#315,#317,.T.);
#315 = VERTEX_POINT('',#316);
#316 = CARTESIAN_POINT('',(-516.931671,126.947678,20.));
#317 = LINE('',#318,#319);
#318 = CARTESIAN_POINT('',(-516.931671,229.947678,20.));
#319 = VECTOR('',#320,1.);
#320 = DIRECTION('',(0.,-1.,0.));
#321 = ORIENTED_EDGE('',*,*,#322,.T.);
#322 = EDGE_CURVE('',#315,#323,#325,.T.);
#323 = VERTEX_POINT('',#324);
#324 = CARTESIAN_POINT('',(-506.931671,116.947678,20.));
#325 = CIRCLE('',#326,10.);
#326 = AXIS2_PLACEMENT_3D('',#327,#328,#329);
#327 = CARTESIAN_POINT('',(-506.931671,126.947678,20.));
#328 = DIRECTION('',(0.,0.,1.));
#329 = DIRECTION('',(-1.1E-16,1.,0.));
#330 = ORIENTED_EDGE('',*,*,#331,.T.);
#331 = EDGE_CURVE('',#323,#332,#334,.T.);
#332 = VERTEX_POINT('',#333);
#333 = CARTESIAN_POINT('',(-396.931671,116.947678,20.));
#334 = LINE('',#335,#336);
#335 = CARTESIAN_POINT('',(-506.931671,116.947678,20.));
#336 = VECTOR('',#337,1.);
#337 = DIRECTION('',(1.,0.,0.));
#338 = ORIENTED_EDGE('',*,*,#339,.T.);
#339 = EDGE_CURVE('',#332,#340,#342,.T.);
#340 = VERTEX_POINT('',#341);
#341 = CARTESIAN_POINT('',(-386.931671,126.947678,20.));
#342 = CIRCLE('',#343,10.);
#343 = AXIS2_PLACEMENT_3D('',#344,#345,#346);
#344 = CARTESIAN_POINT('',(-396.931671,126.947678,20.));
#345 = DIRECTION('',(0.,0.,1.));
#346 = DIRECTION('',(-1.,-1.1E-16,0.));
#347 = ORIENTED_EDGE('',*,*,#348,.T.);
#348 = EDGE_CURVE('',#340,#287,#349,.T.);
#349 = LINE('',#350,#351);
#350 = CARTESIAN_POINT('',(-386.931671,126.947678,20.));
#351 = VECTOR('',#352,1.);
#352 = DIRECTION('',(0.,1.,0.));
#353 = FACE_BOUND('',#354,.T.);
#354 = EDGE_LOOP('',(#355));
#355 = ORIENTED_EDGE('',*,*,#356,.F.);
#356 = EDGE_CURVE('',#357,#357,#359,.T.);
#357 = VERTEX_POINT('',#358);
#358 = CARTESIAN_POINT('',(-508.385925,123.648819,20.));
#359 = CIRCLE('',#360,1.);
#360 = AXIS2_PLACEMENT_3D('',#361,#362,#363);
#361 = CARTESIAN_POINT('',(-509.385925,123.648819,20.));
#362 = DIRECTION('',(0.,0.,1.));
#363 = DIRECTION('',(1.,0.,0.));
#364 = FACE_BOUND('',#365,.T.);
#365 = EDGE_LOOP('',(#366));
#366 = ORIENTED_EDGE('',*,*,#367,.F.);
#367 = EDGE_CURVE('',#368,#368,#370,.T.);
#368 = VERTEX_POINT('',#369);
#369 = CARTESIAN_POINT('',(-392.134796,124.663124,20.));
#370 = CIRCLE('',#371,1.);
#371 = AXIS2_PLACEMENT_3D('',#372,#373,#374);
#372 = CARTESIAN_POINT('',(-393.134796,124.663124,20.));
#373 = DIRECTION('',(0.,0.,1.));
#374 = DIRECTION('',(1.,0.,0.));
#375 = FACE_BOUND('',#376,.T.);
#376 = EDGE_LOOP('',(#377));
#377 = ORIENTED_EDGE('',*,*,#378,.F.);
#378 = EDGE_CURVE('',#379,#379,#381,.T.);
#379 = VERTEX_POINT('',#380);
#380 = CARTESIAN_POINT('',(-510.407745,231.669083,20.));
#381 = CIRCLE('',#382,1.);
#382 = AXIS2_PLACEMENT_3D('',#383,#384,#385);
#383 = CARTESIAN_POINT('',(-511.407745,231.669083,20.));
#384 = DIRECTION('',(0.,0.,1.));
#385 = DIRECTION('',(1.,0.,0.));
#386 = FACE_BOUND('',#387,.T.);
#387 = EDGE_LOOP('',(#388,#389,#397,#403));
#388 = ORIENTED_EDGE('',*,*,#39,.F.);
#389 = ORIENTED_EDGE('',*,*,#390,.F.);
#390 = EDGE_CURVE('',#391,#32,#393,.T.);
#391 = VERTEX_POINT('',#392);
#392 = CARTESIAN_POINT('',(-396.931671,229.947678,20.));
#393 = LINE('',#394,#395);
#394 = CARTESIAN_POINT('',(-396.931671,229.947678,20.));
#395 = VECTOR('',#396,1.);
#396 = DIRECTION('',(-1.,0.,0.));
#397 = ORIENTED_EDGE('',*,*,#398,.F.);
#398 = EDGE_CURVE('',#264,#391,#399,.T.);
#399 = LINE('',#400,#401);
#400 = CARTESIAN_POINT('',(-396.931671,126.947678,20.));
#401 = VECTOR('',#402,1.);
#402 = DIRECTION('',(0.,1.,0.));
#403 = ORIENTED_EDGE('',*,*,#263,.F.);
#404 = FACE_BOUND('',#405,.T.);
#405 = EDGE_LOOP('',(#406));
#406 = ORIENTED_EDGE('',*,*,#407,.F.);
#407 = EDGE_CURVE('',#408,#408,#410,.T.);
#408 = VERTEX_POINT('',#409);
#409 = CARTESIAN_POINT('',(-391.518372,232.380737,20.));
#410 = CIRCLE('',#411,1.);
#411 = AXIS2_PLACEMENT_3D('',#412,#413,#414);
#412 = CARTESIAN_POINT('',(-392.518372,232.380737,20.));
#413 = DIRECTION('',(0.,0.,1.));
#414 = DIRECTION('',(1.,0.,0.));
#415 = PLANE('',#416);
#416 = AXIS2_PLACEMENT_3D('',#417,#418,#419);
#417 = CARTESIAN_POINT('',(-451.931671,178.447678,20.));
#418 = DIRECTION('',(0.,0.,1.));
#419 = DIRECTION('',(1.,0.,0.));
#420 = ADVANCED_FACE('',(#421),#432,.T.);
#421 = FACE_BOUND('',#422,.T.);
#422 = EDGE_LOOP('',(#423,#429,#430,#431));
#423 = ORIENTED_EDGE('',*,*,#424,.T.);
#424 = EDGE_CURVE('',#94,#391,#425,.T.);
#425 = LINE('',#426,#427);
#426 = CARTESIAN_POINT('',(-396.931671,229.947678,0.));
#427 = VECTOR('',#428,1.);
#428 = DIRECTION('',(0.,0.,1.));
#429 = ORIENTED_EDGE('',*,*,#390,.T.);
#430 = ORIENTED_EDGE('',*,*,#31,.F.);
#431 = ORIENTED_EDGE('',*,*,#93,.F.);
#432 = PLANE('',#433);
#433 = AXIS2_PLACEMENT_3D('',#434,#435,#436);
#434 = CARTESIAN_POINT('',(-396.931671,229.947678,0.));
#435 = DIRECTION('',(0.,-1.,0.));
#436 = DIRECTION('',(-1.,0.,0.));
#437 = ADVANCED_FACE('',(#438),#444,.T.);
#438 = FACE_BOUND('',#439,.T.);
#439 = EDGE_LOOP('',(#440,#441,#442,#443));
#440 = ORIENTED_EDGE('',*,*,#271,.T.);
#441 = ORIENTED_EDGE('',*,*,#398,.T.);
#442 = ORIENTED_EDGE('',*,*,#424,.F.);
#443 = ORIENTED_EDGE('',*,*,#133,.F.);
#444 = PLANE('',#445);
#445 = AXIS2_PLACEMENT_3D('',#446,#447,#448);
#446 = CARTESIAN_POINT('',(-396.931671,126.947678,0.));
#447 = DIRECTION('',(-1.,0.,0.));
#448 = DIRECTION('',(0.,1.,0.));
#449 = ADVANCED_FACE('',(#450),#461,.F.);
#450 = FACE_BOUND('',#451,.F.);
#451 = EDGE_LOOP('',(#452,#453,#459,#460));
#452 = ORIENTED_EDGE('',*,*,#248,.F.);
#453 = ORIENTED_EDGE('',*,*,#454,.T.);
#454 = EDGE_CURVE('',#223,#150,#455,.T.);
#455 = LINE('',#456,#457);
#456 = CARTESIAN_POINT('',(-502.931671,176.097678,-0.1));
#457 = VECTOR('',#458,1.);
#458 = DIRECTION('',(0.,1.,0.));
#459 = ORIENTED_EDGE('',*,*,#182,.T.);
#460 = ORIENTED_EDGE('',*,*,#110,.F.);
#461 = PLANE('',#462);
#462 = AXIS2_PLACEMENT_3D('',#463,#464,#465);
#463 = CARTESIAN_POINT('',(-502.931671,176.097678,-0.1));
#464 = DIRECTION('',(1.,0.,0.));
#465 = DIRECTION('',(0.,0.,1.));
#466 = ADVANCED_FACE('',(#467),#478,.T.);
#467 = FACE_BOUND('',#468,.T.);
#468 = EDGE_LOOP('',(#469,#470,#476,#477));
#469 = ORIENTED_EDGE('',*,*,#147,.F.);
#470 = ORIENTED_EDGE('',*,*,#471,.T.);
#471 = EDGE_CURVE('',#148,#221,#472,.T.);
#472 = LINE('',#473,#474);
#473 = CARTESIAN_POINT('',(-516.9311709874,229.947678,-0.1));
#474 = VECTOR('',#475,1.);
#475 = DIRECTION('',(0.,-1.,0.));
#476 = ORIENTED_EDGE('',*,*,#220,.T.);
#477 = ORIENTED_EDGE('',*,*,#454,.T.);
#478 = PLANE('',#479);
#479 = AXIS2_PLACEMENT_3D('',#480,#481,#482);
#480 = CARTESIAN_POINT('',(-517.931671,176.097678,-0.1));
#481 = DIRECTION('',(0.,0.,1.));
#482 = DIRECTION('',(1.,0.,0.));
#483 = ADVANCED_FACE('',(#484),#518,.F.);
#484 = FACE_BOUND('',#485,.F.);
#485 = EDGE_LOOP('',(#486,#494,#500,#501,#509,#515,#516,#517));
#486 = ORIENTED_EDGE('',*,*,#487,.F.);
#487 = EDGE_CURVE('',#488,#158,#490,.T.);
#488 = VERTEX_POINT('',#489);
#489 = CARTESIAN_POINT('',(-516.931671,229.947678,0.));
#490 = LINE('',#491,#492);
#491 = CARTESIAN_POINT('',(-516.931671,229.947678,0.));
#492 = VECTOR('',#493,1.);
#493 = DIRECTION('',(0.,-1.,0.));
#494 = ORIENTED_EDGE('',*,*,#495,.T.);
#495 = EDGE_CURVE('',#488,#306,#496,.T.);
#496 = LINE('',#497,#498);
#497 = CARTESIAN_POINT('',(-516.931671,229.947678,0.));
#498 = VECTOR('',#499,1.);
#499 = DIRECTION('',(0.,0.,1.));
#500 = ORIENTED_EDGE('',*,*,#314,.T.);
#501 = ORIENTED_EDGE('',*,*,#502,.F.);
#502 = EDGE_CURVE('',#503,#315,#505,.T.);
#503 = VERTEX_POINT('',#504);
#504 = CARTESIAN_POINT('',(-516.931671,126.947678,0.));
#505 = LINE('',#506,#507);
#506 = CARTESIAN_POINT('',(-516.931671,126.947678,0.));
#507 = VECTOR('',#508,1.);
#508 = DIRECTION('',(0.,0.,1.));
#509 = ORIENTED_EDGE('',*,*,#510,.F.);
#510 = EDGE_CURVE('',#231,#503,#511,.T.);
#511 = LINE('',#512,#513);
#512 = CARTESIAN_POINT('',(-516.931671,229.947678,0.));
#513 = VECTOR('',#514,1.);
#514 = DIRECTION('',(0.,-1.,0.));
#515 = ORIENTED_EDGE('',*,*,#239,.T.);
#516 = ORIENTED_EDGE('',*,*,#197,.F.);
#517 = ORIENTED_EDGE('',*,*,#166,.F.);
#518 = PLANE('',#519);
#519 = AXIS2_PLACEMENT_3D('',#520,#521,#522);
#520 = CARTESIAN_POINT('',(-516.931671,229.947678,0.));
#521 = DIRECTION('',(1.,0.,0.));
#522 = DIRECTION('',(0.,-1.,0.));
#523 = ADVANCED_FACE('',(#524),#555,.T.);
#524 = FACE_BOUND('',#525,.T.);
#525 = EDGE_LOOP('',(#526,#527,#536,#544,#551,#552,#553,#554));
#526 = ORIENTED_EDGE('',*,*,#487,.F.);
#527 = ORIENTED_EDGE('',*,*,#528,.T.);
#528 = EDGE_CURVE('',#488,#529,#531,.T.);
#529 = VERTEX_POINT('',#530);
#530 = CARTESIAN_POINT('',(-506.931671,229.947678,-10.));
#531 = CIRCLE('',#532,10.);
#532 = AXIS2_PLACEMENT_3D('',#533,#534,#535);
#533 = CARTESIAN_POINT('',(-506.931671,229.947678,0.));
#534 = DIRECTION('',(0.,-1.,0.));
#535 = DIRECTION('',(-1.1E-16,0.,1.));
#536 = ORIENTED_EDGE('',*,*,#537,.T.);
#537 = EDGE_CURVE('',#529,#538,#540,.T.);
#538 = VERTEX_POINT('',#539);
#539 = CARTESIAN_POINT('',(-506.931671,126.947678,-10.));
#540 = LINE('',#541,#542);
#541 = CARTESIAN_POINT('',(-506.931671,229.947678,-10.));
#542 = VECTOR('',#543,1.);
#543 = DIRECTION('',(0.,-1.,0.));
#544 = ORIENTED_EDGE('',*,*,#545,.F.);
#545 = EDGE_CURVE('',#503,#538,#546,.T.);
#546 = CIRCLE('',#547,10.);
#547 = AXIS2_PLACEMENT_3D('',#548,#549,#550);
#548 = CARTESIAN_POINT('',(-506.931671,126.947678,0.));
#549 = DIRECTION('',(0.,-1.,0.));
#550 = DIRECTION('',(-1.1E-16,0.,1.));
#551 = ORIENTED_EDGE('',*,*,#510,.F.);
#552 = ORIENTED_EDGE('',*,*,#230,.T.);
#553 = ORIENTED_EDGE('',*,*,#471,.F.);
#554 = ORIENTED_EDGE('',*,*,#157,.F.);
#555 = CYLINDRICAL_SURFACE('',#556,10.);
#556 = AXIS2_PLACEMENT_3D('',#557,#558,#559);
#557 = CARTESIAN_POINT('',(-506.931671,229.947678,0.));
#558 = DIRECTION('',(0.,-1.,0.));
#559 = DIRECTION('',(-1.1E-16,0.,1.));
#560 = ADVANCED_FACE('',(#561),#587,.T.);
#561 = FACE_BOUND('',#562,.T.);
#562 = EDGE_LOOP('',(#563,#571,#572,#580));
#563 = ORIENTED_EDGE('',*,*,#564,.T.);
#564 = EDGE_CURVE('',#565,#289,#567,.T.);
#565 = VERTEX_POINT('',#566);
#566 = CARTESIAN_POINT('',(-396.931671,239.947678,0.));
#567 = LINE('',#568,#569);
#568 = CARTESIAN_POINT('',(-396.931671,239.947678,0.));
#569 = VECTOR('',#570,1.);
#570 = DIRECTION('',(0.,0.,1.));
#571 = ORIENTED_EDGE('',*,*,#286,.F.);
#572 = ORIENTED_EDGE('',*,*,#573,.F.);
#573 = EDGE_CURVE('',#574,#287,#576,.T.);
#574 = VERTEX_POINT('',#575);
#575 = CARTESIAN_POINT('',(-386.931671,229.947678,0.));
#576 = LINE('',#577,#578);
#577 = CARTESIAN_POINT('',(-386.931671,229.947678,0.));
#578 = VECTOR('',#579,1.);
#579 = DIRECTION('',(0.,0.,1.));
#580 = ORIENTED_EDGE('',*,*,#581,.T.);
#581 = EDGE_CURVE('',#574,#565,#582,.T.);
#582 = CIRCLE('',#583,10.);
#583 = AXIS2_PLACEMENT_3D('',#584,#585,#586);
#584 = CARTESIAN_POINT('',(-396.931671,229.947678,0.));
#585 = DIRECTION('',(-0.,0.,1.));
#586 = DIRECTION('',(1.1E-16,-1.,0.));
#587 = CYLINDRICAL_SURFACE('',#588,10.);
#588 = AXIS2_PLACEMENT_3D('',#589,#590,#591);
#589 = CARTESIAN_POINT('',(-396.931671,229.947678,0.));
#590 = DIRECTION('',(0.,0.,1.));
#591 = DIRECTION('',(1.1E-16,-1.,0.));
#592 = ADVANCED_FACE('',(#593),#611,.F.);
#593 = FACE_BOUND('',#594,.F.);
#594 = EDGE_LOOP('',(#595,#603,#604,#605));
#595 = ORIENTED_EDGE('',*,*,#596,.F.);
#596 = EDGE_CURVE('',#565,#597,#599,.T.);
#597 = VERTEX_POINT('',#598);
#598 = CARTESIAN_POINT('',(-506.931671,239.947678,0.));
#599 = LINE('',#600,#601);
#600 = CARTESIAN_POINT('',(-396.931671,239.947678,0.));
#601 = VECTOR('',#602,1.);
#602 = DIRECTION('',(-1.,0.,0.));
#603 = ORIENTED_EDGE('',*,*,#564,.T.);
#604 = ORIENTED_EDGE('',*,*,#297,.T.);
#605 = ORIENTED_EDGE('',*,*,#606,.F.);
#606 = EDGE_CURVE('',#597,#298,#607,.T.);
#607 = LINE('',#608,#609);
#608 = CARTESIAN_POINT('',(-506.931671,239.947678,0.));
#609 = VECTOR('',#610,1.);
#610 = DIRECTION('',(0.,0.,1.));
#611 = PLANE('',#612);
#612 = AXIS2_PLACEMENT_3D('',#613,#614,#615);
#613 = CARTESIAN_POINT('',(-396.931671,239.947678,0.));
#614 = DIRECTION('',(0.,-1.,0.));
#615 = DIRECTION('',(-1.,0.,0.));
#616 = ADVANCED_FACE('',(#617),#635,.F.);
#617 = FACE_BOUND('',#618,.F.);
#618 = EDGE_LOOP('',(#619,#620,#628,#634));
#619 = ORIENTED_EDGE('',*,*,#573,.F.);
#620 = ORIENTED_EDGE('',*,*,#621,.F.);
#621 = EDGE_CURVE('',#622,#574,#624,.T.);
#622 = VERTEX_POINT('',#623);
#623 = CARTESIAN_POINT('',(-386.931671,126.947678,0.));
#624 = LINE('',#625,#626);
#625 = CARTESIAN_POINT('',(-386.931671,126.947678,0.));
#626 = VECTOR('',#627,1.);
#627 = DIRECTION('',(0.,1.,0.));
#628 = ORIENTED_EDGE('',*,*,#629,.T.);
#629 = EDGE_CURVE('',#622,#340,#630,.T.);
#630 = LINE('',#631,#632);
#631 = CARTESIAN_POINT('',(-386.931671,126.947678,0.));
#632 = VECTOR('',#633,1.);
#633 = DIRECTION('',(0.,0.,1.));
#634 = ORIENTED_EDGE('',*,*,#348,.T.);
#635 = PLANE('',#636);
#636 = AXIS2_PLACEMENT_3D('',#637,#638,#639);
#637 = CARTESIAN_POINT('',(-386.931671,126.947678,0.));
#638 = DIRECTION('',(-1.,0.,0.));
#639 = DIRECTION('',(0.,1.,0.));
#640 = ADVANCED_FACE('',(#641),#653,.T.);
#641 = FACE_BOUND('',#642,.T.);
#642 = EDGE_LOOP('',(#643,#650,#651,#652));
#643 = ORIENTED_EDGE('',*,*,#644,.F.);
#644 = EDGE_CURVE('',#488,#597,#645,.T.);
#645 = CIRCLE('',#646,10.);
#646 = AXIS2_PLACEMENT_3D('',#647,#648,#649);
#647 = CARTESIAN_POINT('',(-506.931671,229.947678,0.));
#648 = DIRECTION('',(-0.,0.,-1.));
#649 = DIRECTION('',(-1.1E-16,-1.,0.));
#650 = ORIENTED_EDGE('',*,*,#495,.T.);
#651 = ORIENTED_EDGE('',*,*,#305,.T.);
#652 = ORIENTED_EDGE('',*,*,#606,.F.);
#653 = CYLINDRICAL_SURFACE('',#654,10.);
#654 = AXIS2_PLACEMENT_3D('',#655,#656,#657);
#655 = CARTESIAN_POINT('',(-506.931671,229.947678,0.));
#656 = DIRECTION('',(0.,0.,1.));
#657 = DIRECTION('',(-1.1E-16,-1.,0.));
#658 = ADVANCED_FACE('',(#659),#678,.T.);
#659 = FACE_BOUND('',#660,.T.);
#660 = EDGE_LOOP('',(#661,#662,#663,#671));
#661 = ORIENTED_EDGE('',*,*,#629,.T.);
#662 = ORIENTED_EDGE('',*,*,#339,.F.);
#663 = ORIENTED_EDGE('',*,*,#664,.F.);
#664 = EDGE_CURVE('',#665,#332,#667,.T.);
#665 = VERTEX_POINT('',#666);
#666 = CARTESIAN_POINT('',(-396.931671,116.947678,0.));
#667 = LINE('',#668,#669);
#668 = CARTESIAN_POINT('',(-396.931671,116.947678,0.));
#669 = VECTOR('',#670,1.);
#670 = DIRECTION('',(0.,0.,1.));
#671 = ORIENTED_EDGE('',*,*,#672,.T.);
#672 = EDGE_CURVE('',#665,#622,#673,.T.);
#673 = CIRCLE('',#674,10.);
#674 = AXIS2_PLACEMENT_3D('',#675,#676,#677);
#675 = CARTESIAN_POINT('',(-396.931671,126.947678,0.));
#676 = DIRECTION('',(0.,0.,1.));
#677 = DIRECTION('',(-1.,-1.1E-16,0.));
#678 = CYLINDRICAL_SURFACE('',#679,10.);
#679 = AXIS2_PLACEMENT_3D('',#680,#681,#682);
#680 = CARTESIAN_POINT('',(-396.931671,126.947678,0.));
#681 = DIRECTION('',(0.,0.,1.));
#682 = DIRECTION('',(-1.,-1.1E-16,0.));
#683 = ADVANCED_FACE('',(#684),#702,.F.);
#684 = FACE_BOUND('',#685,.F.);
#685 = EDGE_LOOP('',(#686,#687,#695,#701));
#686 = ORIENTED_EDGE('',*,*,#664,.F.);
#687 = ORIENTED_EDGE('',*,*,#688,.F.);
#688 = EDGE_CURVE('',#689,#665,#691,.T.);
#689 = VERTEX_POINT('',#690);
#690 = CARTESIAN_POINT('',(-506.931671,116.947678,0.));
#691 = LINE('',#692,#693);
#692 = CARTESIAN_POINT('',(-506.931671,116.947678,0.));
#693 = VECTOR('',#694,1.);
#694 = DIRECTION('',(1.,0.,0.));
#695 = ORIENTED_EDGE('',*,*,#696,.T.);
#696 = EDGE_CURVE('',#689,#323,#697,.T.);
#697 = LINE('',#698,#699);
#698 = CARTESIAN_POINT('',(-506.931671,116.947678,0.));
#699 = VECTOR('',#700,1.);
#700 = DIRECTION('',(0.,0.,1.));
#701 = ORIENTED_EDGE('',*,*,#331,.T.);
#702 = PLANE('',#703);
#703 = AXIS2_PLACEMENT_3D('',#704,#705,#706);
#704 = CARTESIAN_POINT('',(-506.931671,116.947678,0.));
#705 = DIRECTION('',(0.,1.,0.));
#706 = DIRECTION('',(1.,0.,0.));
#707 = ADVANCED_FACE('',(#708),#720,.T.);
#708 = FACE_BOUND('',#709,.T.);
#709 = EDGE_LOOP('',(#710,#711,#712,#713));
#710 = ORIENTED_EDGE('',*,*,#696,.T.);
#711 = ORIENTED_EDGE('',*,*,#322,.F.);
#712 = ORIENTED_EDGE('',*,*,#502,.F.);
#713 = ORIENTED_EDGE('',*,*,#714,.T.);
#714 = EDGE_CURVE('',#503,#689,#715,.T.);
#715 = CIRCLE('',#716,10.);
#716 = AXIS2_PLACEMENT_3D('',#717,#718,#719);
#717 = CARTESIAN_POINT('',(-506.931671,126.947678,0.));
#718 = DIRECTION('',(0.,0.,1.));
#719 = DIRECTION('',(-1.1E-16,1.,0.));
#720 = CYLINDRICAL_SURFACE('',#721,10.);
#721 = AXIS2_PLACEMENT_3D('',#722,#723,#724);
#722 = CARTESIAN_POINT('',(-506.931671,126.947678,0.));
#723 = DIRECTION('',(0.,0.,1.));
#724 = DIRECTION('',(-1.1E-16,1.,0.));
#725 = ADVANCED_FACE('',(#726),#835,.F.);
#726 = FACE_BOUND('',#727,.F.);
#727 = EDGE_LOOP('',(#728,#827,#833,#834));
#728 = ORIENTED_EDGE('',*,*,#729,.T.);
#729 = EDGE_CURVE('',#730,#730,#732,.T.);
#730 = VERTEX_POINT('',#731);
#731 = CARTESIAN_POINT('',(-508.385925,123.648819,-9.327522425683));
#732 = B_SPLINE_CURVE_WITH_KNOTS('',5,(#733,#734,#735,#736,#737,#738,
    #739,#740,#741,#742,#743,#744,#745,#746,#747,#748,#749,#750,#751,
    #752,#753,#754,#755,#756,#757,#758,#759,#760,#761,#762,#763,#764,
    #765,#766,#767,#768,#769,#770,#771,#772,#773,#774,#775,#776,#777,
    #778,#779,#780,#781,#782,#783,#784,#785,#786,#787,#788,#789,#790,
    #791,#792,#793,#794,#795,#796,#797,#798,#799,#800,#801,#802,#803,
    #804,#805,#806,#807,#808,#809,#810,#811,#812,#813,#814,#815,#816,
    #817,#818,#819,#820,#821,#822,#823,#824,#825,#826),.UNSPECIFIED.,.T.
  ,.F.,(1,5,4,4,4,4,4,4,4,4,4,4,4,4,4,4,4,4,4,4,4,4,4,4,5,1),(
    -3.5340952589E-02,0.,5.547520784052E-02,8.430019634275E-02,
    0.143467782129,0.195847376357,0.220166778787,0.26170953446,
    0.306282035852,0.335688095617,0.402165192416,0.469145142476,
    0.496974542893,0.538457658178,0.57600307832,0.597873125921,
    0.644463433561,0.690573446618,0.712441903163,0.749984577452,
    0.791466089885,0.819295622459,0.88627770146,0.964659047411,1.,
    1.055475207841),.UNSPECIFIED.);
#733 = CARTESIAN_POINT('',(-508.385925,123.648819,-9.327522425683));
#734 = CARTESIAN_POINT('',(-508.385925,123.71783048433,-9.351929674019)
  );
#735 = CARTESIAN_POINT('',(-508.3918783838,123.78735868308,
    -9.374873399306));
#736 = CARTESIAN_POINT('',(-508.4039625738,123.85676256745,
    -9.396099252206));
#737 = CARTESIAN_POINT('',(-508.422272776,123.92529986088,
    -9.415343530636));
#738 = CARTESIAN_POINT('',(-508.4594125577,124.02689675015,
    -9.44121226085));
#739 = CARTESIAN_POINT('',(-508.473766797,124.06118298564,
    -9.449458184229));
#740 = CARTESIAN_POINT('',(-508.4897630577,124.09490142099,
    -9.457070764923));
#741 = CARTESIAN_POINT('',(-508.5073728728,124.12793585243,
    -9.464019430676));
#742 = CARTESIAN_POINT('',(-508.565920697,124.22633116701,
    -9.483121410321));
#743 = CARTESIAN_POINT('',(-508.6119085712,124.28912811314,
    -9.493056259052));
#744 = CARTESIAN_POINT('',(-508.6641157487,124.3475202397,
    -9.499843137675));
#745 = CARTESIAN_POINT('',(-508.721861926,124.40055580312,
    -9.503340096589));
#746 = CARTESIAN_POINT('',(-508.8393486873,124.48907227366,
    -9.503725321455));
#747 = CARTESIAN_POINT('',(-508.8981123868,124.52587827049,
    -9.501325848927));
#748 = CARTESIAN_POINT('',(-508.9598052076,124.55742197314,
    -9.496343659127));
#749 = CARTESIAN_POINT('',(-509.023673142,124.58340229195,
    -9.488861705938));
#750 = CARTESIAN_POINT('',(-509.1192482918,124.61312742242,
    -9.474460789046));
#751 = CARTESIAN_POINT('',(-509.1498568251,124.62132848497,
    -9.469387169659));
#752 = CARTESIAN_POINT('',(-509.1806934243,124.62829450632,
    -9.46382069739));
#753 = CARTESIAN_POINT('',(-509.211684322,124.63402251049,
    -9.457778045018));
#754 = CARTESIAN_POINT('',(-509.2958381707,124.64619597965,
    -9.440174461476));
#755 = CARTESIAN_POINT('',(-509.3491604211,124.65027636032,
    -9.427735948882));
#756 = CARTESIAN_POINT('',(-509.4023684756,124.65078218678,
    -9.414055277172));
#757 = CARTESIAN_POINT('',(-509.4551387418,124.6477978244,-9.39923731638
    ));
#758 = CARTESIAN_POINT('',(-509.5630269531,124.63461804761,
    -9.366385295391));
#759 = CARTESIAN_POINT('',(-509.6180358151,124.62391255038,
    -9.348195383147));
#760 = CARTESIAN_POINT('',(-509.6718601528,124.60946742796,
    -9.328951287473));
#761 = CARTESIAN_POINT('',(-509.7241998324,124.59146766377,
    -9.308786768295));
#762 = CARTESIAN_POINT('',(-509.8081802001,124.55601987177,
    -9.274005080882));
#763 = CARTESIAN_POINT('',(-509.8408040083,124.54046805882,
    -9.259835007574));
#764 = CARTESIAN_POINT('',(-509.8725966378,124.52351172076,-9.2453574047
    ));
#765 = CARTESIAN_POINT('',(-509.9034916656,124.50520950803,
    -9.230608543901));
#766 = CARTESIAN_POINT('',(-510.0011087954,124.44134042991,
    -9.18174887721));
#767 = CARTESIAN_POINT('',(-510.0638918939,124.39049128868,
    -9.146671050068));
#768 = CARTESIAN_POINT('',(-510.1210977613,124.33376235089,
    -9.110795920856));
#769 = CARTESIAN_POINT('',(-510.1721710147,124.27187086943,
    -9.074519750547));
#770 = CARTESIAN_POINT('',(-510.26141802,124.13870187486,-9.001680264395
    ));
#771 = CARTESIAN_POINT('',(-510.2994866352,124.06736383394,
    -8.965120646025));
#772 = CARTESIAN_POINT('',(-510.3303393538,123.99225986063,
    -8.92896091774));
#773 = CARTESIAN_POINT('',(-510.3535171008,123.91418402954,
    -8.893632258086));
#774 = CARTESIAN_POINT('',(-510.3749007361,123.80072528038,
    -8.845462453092));
#775 = CARTESIAN_POINT('',(-510.3797840968,123.76706381519,
    -8.83154767901));
#776 = CARTESIAN_POINT('',(-510.3832453077,123.73310937001,
    -8.817891364937));
#777 = CARTESIAN_POINT('',(-510.3852584366,123.69893167019,
    -8.804528921208));
#778 = CARTESIAN_POINT('',(-510.3866082363,123.61343751448,
    -8.772071888133));
#779 = CARTESIAN_POINT('',(-510.3841473722,123.56193974273,
    -8.75338156305));
#780 = CARTESIAN_POINT('',(-510.3783428167,123.51035897803,
    -8.735547971941));
#781 = CARTESIAN_POINT('',(-510.3691375602,123.45897289876,
    -8.718701522274));
#782 = CARTESIAN_POINT('',(-510.3450945017,123.36203454214,
    -8.688737255916));
#783 = CARTESIAN_POINT('',(-510.3308743061,123.3163915255,
    -8.675417301648));
#784 = CARTESIAN_POINT('',(-510.3138463624,123.27138870947,
    -8.663110174607));
#785 = CARTESIAN_POINT('',(-510.2940299868,123.22727523719,
    -8.651913034025));
#786 = CARTESIAN_POINT('',(-510.2583666767,123.15928435167,
    -8.636087194155));
#787 = CARTESIAN_POINT('',(-510.2443166809,123.13464754061,
    -8.630667841614));
#788 = CARTESIAN_POINT('',(-510.22935729,123.11045204881,-8.625671691669
    ));
#789 = CARTESIAN_POINT('',(-510.2135078851,123.08674939805,
    -8.621114168885));
#790 = CARTESIAN_POINT('',(-510.1611874299,123.0142562344,
    -8.608263185348));
#791 = CARTESIAN_POINT('',(-510.1216538841,122.96738688692,
    -8.601568779299));
#792 = CARTESIAN_POINT('',(-510.078446878,122.92348901312,
    -8.597057603367));
#793 = CARTESIAN_POINT('',(-510.0319372201,122.883021396,-8.594806211579
    ));
#794 = CARTESIAN_POINT('',(-509.9338002192,122.81005025029,
    -8.594821523874));
#795 = CARTESIAN_POINT('',(-509.8822232443,122.7774634635,
    -8.597041890246));
#796 = CARTESIAN_POINT('',(-509.8283571335,122.74893896026,
    -8.601475189234));
#797 = CARTESIAN_POINT('',(-509.7727308428,122.72469372388,
    -8.608047557277));
#798 = CARTESIAN_POINT('',(-509.6889245048,122.69540043634,
    -8.620703037676));
#799 = CARTESIAN_POINT('',(-509.6616887435,122.68696071607,
    -8.625227004238));
#800 = CARTESIAN_POINT('',(-509.6342340296,122.67951450639,
    -8.630190208794));
#801 = CARTESIAN_POINT('',(-509.6066153047,122.67306572798,
    -8.635577289126));
#802 = CARTESIAN_POINT('',(-509.5312813745,122.65825080188,
    -8.651317412622));
#803 = CARTESIAN_POINT('',(-509.4833501293,122.65182347921,
    -8.662462515901));
#804 = CARTESIAN_POINT('',(-509.435360933,122.64832246991,
    -8.674719984013));
#805 = CARTESIAN_POINT('',(-509.3875582798,122.64769526094,
    -8.687992800887));
#806 = CARTESIAN_POINT('',(-509.2877867381,122.652266196,-8.717863874477
    ));
#807 = CARTESIAN_POINT('',(-509.2359069423,122.65808242124,
    -8.734664923223));
#808 = CARTESIAN_POINT('',(-509.1848100681,122.66721387305,
    -8.752456475607));
#809 = CARTESIAN_POINT('',(-509.1347460633,122.67952658098,
    -8.771108160256));
#810 = CARTESIAN_POINT('',(-509.0531802461,122.70517734836,
    -8.803506949075));
#811 = CARTESIAN_POINT('',(-509.0209922377,122.71684434513,
    -8.816847924355));
#812 = CARTESIAN_POINT('',(-508.9894310787,122.72983570892,
    -8.830484357582));
#813 = CARTESIAN_POINT('',(-508.9585561711,122.74410668505,
    -8.84438085116));
#814 = CARTESIAN_POINT('',(-508.8558912101,122.79692851081,
    -8.892494807162));
#815 = CARTESIAN_POINT('',(-508.7876548322,122.84138932839,
    -8.927793695163));
#816 = CARTESIAN_POINT('',(-508.7244541129,122.8923597504,
    -8.963933336279));
#817 = CARTESIAN_POINT('',(-508.6669183884,122.94917412016,
    -9.000482939363));
#818 = CARTESIAN_POINT('',(-508.5555763823,123.08367699595,
    -9.079819486446));
#819 = CARTESIAN_POINT('',(-508.5040803311,123.16326136037,
    -9.122602836725));
#820 = CARTESIAN_POINT('',(-508.4620238951,123.24881378245,
    -9.164747675327));
#821 = CARTESIAN_POINT('',(-508.4302764168,123.33910917376,
    -9.205602076578));
#822 = CARTESIAN_POINT('',(-508.4002230546,123.47486833328,
    -9.262025831405));
#823 = CARTESIAN_POINT('',(-508.3931271202,123.51772093866,
    -9.279159885184));
#824 = CARTESIAN_POINT('',(-508.3883411117,123.56109986907,
    -9.295830730278));
#825 = CARTESIAN_POINT('',(-508.385925,123.60485443029,-9.311973503919)
  );
#826 = CARTESIAN_POINT('',(-508.385925,123.648819,-9.327522425683));
#827 = ORIENTED_EDGE('',*,*,#828,.F.);
#828 = EDGE_CURVE('',#357,#730,#829,.T.);
#829 = LINE('',#830,#831);
#830 = CARTESIAN_POINT('',(-508.385925,123.648819,20.));
#831 = VECTOR('',#832,1.);
#832 = DIRECTION('',(-6.E-17,0.,-1.));
#833 = ORIENTED_EDGE('',*,*,#356,.F.);
#834 = ORIENTED_EDGE('',*,*,#828,.T.);
#835 = CYLINDRICAL_SURFACE('',#836,1.);
#836 = AXIS2_PLACEMENT_3D('',#837,#838,#839);
#837 = CARTESIAN_POINT('',(-509.385925,123.648819,20.));
#838 = DIRECTION('',(-0.,-0.,-1.));
#839 = DIRECTION('',(1.,0.,0.));
#840 = ADVANCED_FACE('',(#841),#950,.F.);
#841 = FACE_BOUND('',#842,.F.);
#842 = EDGE_LOOP('',(#843,#942,#948,#949));
#843 = ORIENTED_EDGE('',*,*,#844,.T.);
#844 = EDGE_CURVE('',#845,#845,#847,.T.);
#845 = VERTEX_POINT('',#846);
#846 = CARTESIAN_POINT('',(-392.134796,124.663124,-8.471765061393));
#847 = B_SPLINE_CURVE_WITH_KNOTS('',5,(#848,#849,#850,#851,#852,#853,
    #854,#855,#856,#857,#858,#859,#860,#861,#862,#863,#864,#865,#866,
    #867,#868,#869,#870,#871,#872,#873,#874,#875,#876,#877,#878,#879,
    #880,#881,#882,#883,#884,#885,#886,#887,#888,#889,#890,#891,#892,
    #893,#894,#895,#896,#897,#898,#899,#900,#901,#902,#903,#904,#905,
    #906,#907,#908,#909,#910,#911,#912,#913,#914,#915,#916,#917,#918,
    #919,#920,#921,#922,#923,#924,#925,#926,#927,#928,#929,#930,#931,
    #932,#933,#934,#935,#936,#937,#938,#939,#940,#941),.UNSPECIFIED.,.T.
  ,.F.,(1,5,4,4,4,4,4,4,4,4,4,4,4,4,4,4,4,4,4,4,4,4,4,4,5,1),(
    -2.8223309391E-02,0.,5.103963001352E-02,8.242823594146E-02,
    0.158736674535,0.226730143785,0.256253244671,0.300851336311,
    0.341751107411,0.365912942853,0.416893816707,0.467868794517,
    0.492023751805,0.533406009947,0.578509867376,0.608034414974,
    0.676556755811,0.745575418478,0.773503646526,0.814487511453,
    0.851392242006,0.872632924656,0.917396595678,0.971776690609,1.,
    1.051039630014),.UNSPECIFIED.);
#848 = CARTESIAN_POINT('',(-392.134796,124.663124,-8.471765061393));
#849 = CARTESIAN_POINT('',(-392.134796,124.72873416214,-8.489457945612)
  );
#850 = CARTESIAN_POINT('',(-392.140177076,124.79374534696,
    -8.509354830521));
#851 = CARTESIAN_POINT('',(-392.1507413222,124.85754431681,
    -8.53117848767));
#852 = CARTESIAN_POINT('',(-392.1661884563,124.91963932192,
    -8.554639254871));
#853 = CARTESIAN_POINT('',(-392.1985201976,125.01653694092,
    -8.594749797075));
#854 = CARTESIAN_POINT('',(-392.2125617141,125.05264282053,
    -8.61054425318));
#855 = CARTESIAN_POINT('',(-392.2282599373,125.08786597531,
    -8.626798191767));
#856 = CARTESIAN_POINT('',(-392.2455414557,125.12212691176,
    -8.643454145785));
#857 = CARTESIAN_POINT('',(-392.3100146699,125.2361412543,
    -8.701796170193));
#858 = CARTESIAN_POINT('',(-392.3646115015,125.3108182085,
    -8.745184793592));
#859 = CARTESIAN_POINT('',(-392.4270828831,125.37842187913,
    -8.789863950425));
#860 = CARTESIAN_POINT('',(-392.4963943851,125.43818130666,
    -8.835160673648));
#861 = CARTESIAN_POINT('',(-392.6384936778,125.53504731679,
    -8.920835103434));
#862 = CARTESIAN_POINT('',(-392.710068499,125.57390498968,
    -8.961204179304));
#863 = CARTESIAN_POINT('',(-392.7855413596,125.60548791413,
    -9.00113890916));
#864 = CARTESIAN_POINT('',(-392.8641300773,125.62930898157,
    -9.040199716236));
#865 = CARTESIAN_POINT('',(-392.9800196393,125.65171962276,
    -9.094310793523));
#866 = CARTESIAN_POINT('',(-393.0155215607,125.65695923927,
    -9.110441240182));
#867 = CARTESIAN_POINT('',(-393.0513650836,125.66061763442,
    -9.126281959311));
#868 = CARTESIAN_POINT('',(-393.08746894,125.662662039,-9.141793583314)
  );
#869 = CARTESIAN_POINT('',(-393.1785452204,125.66366854832,
    -9.179808995704));
#870 = CARTESIAN_POINT('',(-393.2337384395,125.66052400488,
    -9.201838628549));
#871 = CARTESIAN_POINT('',(-393.2890222208,125.65352973089,
    -9.222884436651));
#872 = CARTESIAN_POINT('',(-393.3440512711,125.64260928028,
    -9.242797553289));
#873 = CARTESIAN_POINT('',(-393.4483197261,125.6141111961,
    -9.278514384626));
#874 = CARTESIAN_POINT('',(-393.497660906,125.59716068889,
    -9.294521964933));
#875 = CARTESIAN_POINT('',(-393.5461654871,125.57687887281,
    -9.30933534957));
#876 = CARTESIAN_POINT('',(-393.5935068843,125.55329430904,
    -9.32283859416));
#877 = CARTESIAN_POINT('',(-393.6664263311,125.51068105092,
    -9.342068924299));
#878 = CARTESIAN_POINT('',(-393.692982421,125.49373783429,-9.34871692877
    ));
#879 = CARTESIAN_POINT('',(-393.7189443657,125.47569685371,
    -9.354849694652));
#880 = CARTESIAN_POINT('',(-393.7442425224,125.45658730092,
    -9.360447786628));
#881 = CARTESIAN_POINT('',(-393.8206400808,125.39395249437,
    -9.376141500255));
#882 = CARTESIAN_POINT('',(-393.86921636,125.34686535108,-9.38433359581)
  );
#883 = CARTESIAN_POINT('',(-393.913876892,125.29555750547,
    -9.389907576983));
#884 = CARTESIAN_POINT('',(-393.9540416462,125.24056663915,
    -9.392768371756));
#885 = CARTESIAN_POINT('',(-394.0245277247,125.12462137127,
    -9.393060464664));
#886 = CARTESIAN_POINT('',(-394.0548572594,125.06365602431,
    -9.390492419238));
#887 = CARTESIAN_POINT('',(-394.0798498963,125.000391261,-9.385208128776
    ));
#888 = CARTESIAN_POINT('',(-394.0992939361,124.93558897493,
    -9.377299130083));
#889 = CARTESIAN_POINT('',(-394.119733328,124.83892907946,
    -9.362009274215));
#890 = CARTESIAN_POINT('',(-394.1250530017,124.80767495205,
    -9.356539630205));
#891 = CARTESIAN_POINT('',(-394.1291186649,124.77632256708,
    -9.350533010365));
#892 = CARTESIAN_POINT('',(-394.1319363255,124.74494720414,
    -9.344008559056));
#893 = CARTESIAN_POINT('',(-394.1362337836,124.659951848,-9.324959635016
    ));
#894 = CARTESIAN_POINT('',(-394.1353258434,124.60642547259,
    -9.311474338348));
#895 = CARTESIAN_POINT('',(-394.1308660897,124.55340092533,
    -9.296638718944));
#896 = CARTESIAN_POINT('',(-394.1229843148,124.50119237454,
    -9.280572194937));
#897 = CARTESIAN_POINT('',(-394.0996850273,124.39434569989,
    -9.244671587786));
#898 = CARTESIAN_POINT('',(-394.083653526,124.33991120696,
    -9.224628581711));
#899 = CARTESIAN_POINT('',(-394.0639428305,124.2871087549,
    -9.203419371749));
#900 = CARTESIAN_POINT('',(-394.0407887079,124.23621816307,
    -9.18119761504));
#901 = CARTESIAN_POINT('',(-393.9971723484,124.15555815716,
    -9.142993434446));
#902 = CARTESIAN_POINT('',(-393.9785427698,124.12456516108,
    -9.127507170922));
#903 = CARTESIAN_POINT('',(-393.958606047,124.09455392431,
    -9.111689620381));
#904 = CARTESIAN_POINT('',(-393.9374289907,124.06558120785,
    -9.095580120972));
#905 = CARTESIAN_POINT('',(-393.8632055622,123.97298017216,
    -9.041239624373));
#906 = CARTESIAN_POINT('',(-393.8050150357,123.91413027162,
    -9.001898061812));
#907 = CARTESIAN_POINT('',(-393.74132852,123.86175724027,-8.96166063452)
  );
#908 = CARTESIAN_POINT('',(-393.6729609279,123.81633738906,
    -8.920977460598));
#909 = CARTESIAN_POINT('',(-393.5279188061,123.73996611853,
    -8.839315625127));
#910 = CARTESIAN_POINT('',(-393.4511981192,123.70912734767,
    -8.798342828248));
#911 = CARTESIAN_POINT('',(-393.3713449225,123.68619705725,
    -8.757828849366));
#912 = CARTESIAN_POINT('',(-393.2892168234,123.67158397621,
    -8.718267118045));
#913 = CARTESIAN_POINT('',(-393.1720137064,123.66324370953,
    -8.664805328156));
#914 = CARTESIAN_POINT('',(-393.1380367931,123.66226159142,
    -8.649650584288));
#915 = CARTESIAN_POINT('',(-393.1039115993,123.66272405131,
    -8.634779213865));
#916 = CARTESIAN_POINT('',(-393.0697083453,123.66465252203,
    -8.620230337836));
#917 = CARTESIAN_POINT('',(-392.9853062452,123.67307472872,
    -8.58522898356));
#918 = CARTESIAN_POINT('',(-392.9351049733,123.68128090811,
    -8.565196310898));
#919 = CARTESIAN_POINT('',(-392.8851367609,123.69274216892,
    -8.546077058373));
#920 = CARTESIAN_POINT('',(-392.8356725402,123.70749924518,
    -8.528013608645));
#921 = CARTESIAN_POINT('',(-392.7431970073,123.74180198508,
    -8.495967229868));
#922 = CARTESIAN_POINT('',(-392.7000336601,123.76072477043,
    -8.481757181096));
#923 = CARTESIAN_POINT('',(-392.6577443539,123.78231380608,
    -8.468627528364));
#924 = CARTESIAN_POINT('',(-392.6165715614,123.80653522943,
    -8.456686899866));
#925 = CARTESIAN_POINT('',(-392.5538573357,123.84870858504,
    -8.439901414383));
#926 = CARTESIAN_POINT('',(-392.531400756,123.86495797076,
    -8.434195862938));
#927 = CARTESIAN_POINT('',(-392.5094455844,123.88203434479,
    -8.428935409095));
#928 = CARTESIAN_POINT('',(-392.4880398159,123.89991529628,
    -8.424136998106));
#929 = CARTESIAN_POINT('',(-392.4233778859,123.95789117058,
    -8.410708645944));
#930 = CARTESIAN_POINT('',(-392.3821719066,124.00066066352,
    -8.403719352491));
#931 = CARTESIAN_POINT('',(-392.3440675788,124.04660425006,
    -8.398989198297));
#932 = CARTESIAN_POINT('',(-392.3094670073,124.09533545126,
    -8.396601932884));
#933 = CARTESIAN_POINT('',(-392.2412556163,124.20834128791,
    -8.396504013083));
#934 = CARTESIAN_POINT('',(-392.2094445169,124.27372262957,
    -8.399908257813));
#935 = CARTESIAN_POINT('',(-392.1837811322,124.34160383922,
    -8.406773074487));
#936 = CARTESIAN_POINT('',(-392.1644823678,124.41101225092,
    -8.416916344708));
#937 = CARTESIAN_POINT('',(-392.1447881566,124.51735077813,
    -8.436863993969));
#938 = CARTESIAN_POINT('',(-392.1397644038,124.55384850761,
    -8.444485351152));
#939 = CARTESIAN_POINT('',(-392.1364411494,124.5903855041,-8.45287310377
    ));
#940 = CARTESIAN_POINT('',(-392.134796,124.62684572067,-8.461982012932)
  );
#941 = CARTESIAN_POINT('',(-392.134796,124.663124,-8.471765061393));
#942 = ORIENTED_EDGE('',*,*,#943,.F.);
#943 = EDGE_CURVE('',#368,#845,#944,.T.);
#944 = LINE('',#945,#946);
#945 = CARTESIAN_POINT('',(-392.134796,124.663124,20.));
#946 = VECTOR('',#947,1.);
#947 = DIRECTION('',(-6.E-17,0.,-1.));
#948 = ORIENTED_EDGE('',*,*,#367,.F.);
#949 = ORIENTED_EDGE('',*,*,#943,.T.);
#950 = CYLINDRICAL_SURFACE('',#951,1.);
#951 = AXIS2_PLACEMENT_3D('',#952,#953,#954);
#952 = CARTESIAN_POINT('',(-393.134796,124.663124,20.));
#953 = DIRECTION('',(-0.,-0.,-1.));
#954 = DIRECTION('',(1.,0.,0.));
#955 = ADVANCED_FACE('',(#956),#1083,.F.);
#956 = FACE_BOUND('',#957,.F.);
#957 = EDGE_LOOP('',(#958,#1075,#1081,#1082));
#958 = ORIENTED_EDGE('',*,*,#959,.T.);
#959 = EDGE_CURVE('',#960,#960,#962,.T.);
#960 = VERTEX_POINT('',#961);
#961 = CARTESIAN_POINT('',(-510.407745,231.669083,-9.217031754985));
#962 = B_SPLINE_CURVE_WITH_KNOTS('',6,(#963,#964,#965,#966,#967,#968,
    #969,#970,#971,#972,#973,#974,#975,#976,#977,#978,#979,#980,#981,
    #982,#983,#984,#985,#986,#987,#988,#989,#990,#991,#992,#993,#994,
    #995,#996,#997,#998,#999,#1000,#1001,#1002,#1003,#1004,#1005,#1006,
    #1007,#1008,#1009,#1010,#1011,#1012,#1013,#1014,#1015,#1016,#1017,
    #1018,#1019,#1020,#1021,#1022,#1023,#1024,#1025,#1026,#1027,#1028,
    #1029,#1030,#1031,#1032,#1033,#1034,#1035,#1036,#1037,#1038,#1039,
    #1040,#1041,#1042,#1043,#1044,#1045,#1046,#1047,#1048,#1049,#1050,
    #1051,#1052,#1053,#1054,#1055,#1056,#1057,#1058,#1059,#1060,#1061,
    #1062,#1063,#1064,#1065,#1066,#1067,#1068,#1069,#1070,#1071,#1072,
    #1073,#1074),.UNSPECIFIED.,.T.,.F.,(1,6,5,5,5,5,5,5,5,5,5,5,5,5,5,5,
    5,5,5,5,5,5,5,6,1),(-5.4207602664E-02,0.,7.28728130506E-02,
    0.113245193793,0.205358925312,0.276576863955,0.305148073327,
    0.346116723742,0.38183189807,0.402402128506,0.445246538797,
    0.488088244109,0.508655424335,0.54486034309,0.585836975743,
    0.614412491657,0.685640103808,0.756902485052,0.787088819201,
    0.832201647114,0.872876425715,0.8963394153,0.945792397336,1.,
    1.072872813051),.UNSPECIFIED.);
#963 = CARTESIAN_POINT('',(-510.407745,231.669083,-9.217031754985));
#964 = CARTESIAN_POINT('',(-510.407745,231.74954943127,-9.20200356361));
#965 = CARTESIAN_POINT('',(-510.4155149632,231.82932969297,
    -9.183300780188));
#966 = CARTESIAN_POINT('',(-510.4308053674,231.90731322997,
    -9.161225078907));
#967 = CARTESIAN_POINT('',(-510.4531132002,231.98259151675,
    -9.136156215474));
#968 = CARTESIAN_POINT('',(-510.4818448146,232.05445767877,
    -9.108481999456));
#969 = CARTESIAN_POINT('',(-510.5355135109,232.15999428387,
    -9.062010370348));
#970 = CARTESIAN_POINT('',(-510.5564297318,232.19640823414,
    -9.044757110719));
#971 = CARTESIAN_POINT('',(-510.5790259073,232.23152259841,
    -9.026880065959));
#972 = CARTESIAN_POINT('',(-510.6031977899,232.26526263526,
    -9.00843971461));
#973 = CARTESIAN_POINT('',(-510.6288426394,232.29756579585,
    -8.989494141798));
#974 = CARTESIAN_POINT('',(-510.7175088648,232.3986836655,
    -8.925844739888));
#975 = CARTESIAN_POINT('',(-510.7862930459,232.46121390813,
    -8.879259636648));
#976 = CARTESIAN_POINT('',(-510.8610634089,232.51538524196,
    -8.830977761286));
#977 = CARTESIAN_POINT('',(-510.9407300447,232.56077420401,
    -8.781593140843));
#978 = CARTESIAN_POINT('',(-511.0242762058,232.59706754536,
    -8.731667292855));
#979 = CARTESIAN_POINT('',(-511.1776317296,232.64476313316,
    -8.643144276432));
#980 = CARTESIAN_POINT('',(-511.2462426331,232.65993959326,
    -8.604555253239));
#981 = CARTESIAN_POINT('',(-511.3161568131,232.66935953584,
    -8.566229881613));
#982 = CARTESIAN_POINT('',(-511.3869178956,232.67288280684,
    -8.528440639158));
#983 = CARTESIAN_POINT('',(-511.4580416615,232.67037276175,
    -8.491483642804));
#984 = CARTESIAN_POINT('',(-511.5574740152,232.6582259645,
    -8.441321285976));
#985 = CARTESIAN_POINT('',(-511.5859159684,232.65375710488,
    -8.427145837829));
#986 = CARTESIAN_POINT('',(-511.6142962255,232.64828904236,
    -8.413178620959));
#987 = CARTESIAN_POINT('',(-511.6425781695,232.64181458767,
    -8.399442171361));
#988 = CARTESIAN_POINT('',(-511.6707231623,232.63432752553,
    -8.385960156745));
#989 = CARTESIAN_POINT('',(-511.7387933585,232.61362730577,
    -8.353825728236));
#990 = CARTESIAN_POINT('',(-511.7785303456,232.59933953471,
    -8.335468491013));
#991 = CARTESIAN_POINT('',(-511.8177820116,232.58294472944,
    -8.317758358522));
#992 = CARTESIAN_POINT('',(-511.8564165262,232.56443499628,
    -8.300774349599));
#993 = CARTESIAN_POINT('',(-511.8942909961,232.54381434592,
    -8.284599823712));
#994 = CARTESIAN_POINT('',(-511.9634748179,232.50130568763,
    -8.256000461874));
#995 = CARTESIAN_POINT('',(-511.9950029183,232.47991946653,
    -8.243360893021));
#996 = CARTESIAN_POINT('',(-512.0257351831,232.45696002497,
    -8.231458767023));
#997 = CARTESIAN_POINT('',(-512.0555631366,232.4324529736,
    -8.220352745787));
#998 = CARTESIAN_POINT('',(-512.08437442,232.40643848642,-8.210100616245
    ));
#999 = CARTESIAN_POINT('',(-512.1279985171,232.36315738201,
    -8.195375099915));
#1000 = CARTESIAN_POINT('',(-512.1435666916,232.34685910468,
    -8.190294695626));
#1001 = CARTESIAN_POINT('',(-512.1587381601,232.33009132807,
    -8.185526031529));
#1002 = CARTESIAN_POINT('',(-512.1734913787,232.31286726921,
    -8.181078943827));
#1003 = CARTESIAN_POINT('',(-512.187805148,232.29520222457,
    -8.176962591182));
#1004 = CARTESIAN_POINT('',(-512.2305131063,232.23943787453,
    -8.165318300045));
#1005 = CARTESIAN_POINT('',(-512.2573734943,232.19992122762,
    -8.158921856806));
#1006 = CARTESIAN_POINT('',(-512.2820479835,232.15872698063,
    -8.154073193733));
#1007 = CARTESIAN_POINT('',(-512.3043666565,232.11605177551,
    -8.150828809553));
#1008 = CARTESIAN_POINT('',(-512.3241903756,232.07212450922,
    -8.14921937355));
#1009 = CARTESIAN_POINT('',(-512.3586479089,231.98228892307,
    -8.149269557143));
#1010 = CARTESIAN_POINT('',(-512.3732846196,231.9363740308,
    -8.15092897412));
#1011 = CARTESIAN_POINT('',(-512.3852295744,231.88972039102,
    -8.154222960081));
#1012 = CARTESIAN_POINT('',(-512.3944328711,231.842591184,
    -8.159120689898));
#1013 = CARTESIAN_POINT('',(-512.400889066,231.79524628444,
    -8.165565512121));
#1014 = CARTESIAN_POINT('',(-512.4064278343,231.72522289918,
    -8.177279820661));
#1015 = CARTESIAN_POINT('',(-512.4075989099,231.70251713959,
    -8.181418412901));
#1016 = CARTESIAN_POINT('',(-512.408148376,231.67984514002,
    -8.185887471158));
#1017 = CARTESIAN_POINT('',(-512.4080817409,231.65723246202,
    -8.190677821643));
#1018 = CARTESIAN_POINT('',(-512.4074061627,231.63470335533,
    -8.195779613142));
#1019 = CARTESIAN_POINT('',(-512.403884779,231.57280970201,
    -8.210692830986));
#1020 = CARTESIAN_POINT('',(-512.3997792037,231.53366856083,
    -8.221135971477));
#1021 = CARTESIAN_POINT('',(-512.393860842,231.49498184275,
    -8.232455007316));
#1022 = CARTESIAN_POINT('',(-512.3861888479,231.45685889025,
    -8.244589591593));
#1023 = CARTESIAN_POINT('',(-512.3768295878,231.41939489063,
    -8.257478486601));
#1024 = CARTESIAN_POINT('',(-512.3534272061,231.34110888674,
    -8.286436400677));
#1025 = CARTESIAN_POINT('',(-512.3389294804,231.30049554185,
    -8.30270049295));
#1026 = CARTESIAN_POINT('',(-512.322458303,231.26094923307,
    -8.319768728931));
#1027 = CARTESIAN_POINT('',(-512.3041174314,231.22256812962,
    -8.337557695319));
#1028 = CARTESIAN_POINT('',(-512.2840103202,231.18543422073,
    -8.35598835439));
#1029 = CARTESIAN_POINT('',(-512.2470509636,231.12463835019,
    -8.388237610244));
#1030 = CARTESIAN_POINT('',(-512.2310554043,231.10030068915,
    -8.40176379371));
#1031 = CARTESIAN_POINT('',(-512.2142828309,231.0766265766,
    -8.415541746214));
#1032 = CARTESIAN_POINT('',(-512.1967661818,231.05363715745,
    -8.429547798203));
#1033 = CARTESIAN_POINT('',(-512.1785375488,231.03135150908,
    -8.44375941096));
#1034 = CARTESIAN_POINT('',(-512.1124944899,230.95603384001,
    -8.494038203704));
#1035 = CARTESIAN_POINT('',(-512.0611362671,230.90676550988,
    -8.531061531376));
#1036 = CARTESIAN_POINT('',(-512.0060275357,230.8622373601,
    -8.568900371671));
#1037 = CARTESIAN_POINT('',(-511.9476209828,230.82267072281,
    -8.607258473144));
#1038 = CARTESIAN_POINT('',(-511.8863511706,230.7882654279,
    -8.645863195963));
#1039 = CARTESIAN_POINT('',(-511.7588932343,230.73014574558,
    -8.723076819045));
#1040 = CARTESIAN_POINT('',(-511.6927126684,230.70644115306,
    -8.761679676688));
#1041 = CARTESIAN_POINT('',(-511.6245187716,230.68828971905,
    -8.800013656213));
#1042 = CARTESIAN_POINT('',(-511.5547559249,230.67588930022,
    -8.837819997928));
#1043 = CARTESIAN_POINT('',(-511.4839021443,230.66943247293,
    -8.874832673448));
#1044 = CARTESIAN_POINT('',(-511.3822274881,230.66895093111,
    -8.925999069812));
#1045 = CARTESIAN_POINT('',(-511.3518732983,230.66990543374,
    -8.941031023158));
#1046 = CARTESIAN_POINT('',(-511.3214590451,230.67197123052,
    -8.955848736119));
#1047 = CARTESIAN_POINT('',(-511.2910277047,230.67516057754,
    -8.970429994902));
#1048 = CARTESIAN_POINT('',(-511.2606246663,230.67948447954,
    -8.984751868808));
#1049 = CARTESIAN_POINT('',(-511.1849747812,230.69312481281,
    -9.019771457141));
#1050 = CARTESIAN_POINT('',(-511.139822334,230.70385240803,
    -9.040119855507));
#1051 = CARTESIAN_POINT('',(-511.0949997966,230.71716675997,
    -9.059757239249));
#1052 = CARTESIAN_POINT('',(-511.0506824979,230.7330899395,
    -9.078599996273));
#1053 = CARTESIAN_POINT('',(-511.0070602233,230.75162792602,
    -9.096561329165));
#1054 = CARTESIAN_POINT('',(-510.9258143628,230.79182026313,
    -9.128873117252));
#1055 = CARTESIAN_POINT('',(-510.8880229778,230.8129885491,
    -9.143404905624));
#1056 = CARTESIAN_POINT('',(-510.8511111505,230.83625528645,
    -9.157083386973));
#1057 = CARTESIAN_POINT('',(-510.8152375969,230.86159118839,
    -9.169842497425));
#1058 = CARTESIAN_POINT('',(-510.7805662756,230.88894567803,
    -9.181617660093));
#1059 = CARTESIAN_POINT('',(-510.7280513846,230.93514074287,
    -9.198538268053));
#1060 = CARTESIAN_POINT('',(-510.7092951784,230.95268590607,
    -9.204380714718));
#1061 = CARTESIAN_POINT('',(-510.6910258413,230.97086233533,
    -9.209863936446));
#1062 = CARTESIAN_POINT('',(-510.6732747825,230.98965228834,
    -9.214976967415));
#1063 = CARTESIAN_POINT('',(-510.6560728336,231.00903501894,
    -9.219709621432));
#1064 = CARTESIAN_POINT('',(-510.6044147978,231.07103913074,
    -9.233205967304));
#1065 = CARTESIAN_POINT('',(-510.5719490082,231.11562377217,
    -9.240628989726));
#1066 = CARTESIAN_POINT('',(-510.5423410331,231.16250980268,
    -9.246232628882));
#1067 = CARTESIAN_POINT('',(-510.5158444607,231.21141477764,
    -9.249952388267));
#1068 = CARTESIAN_POINT('',(-510.4926645123,231.26200743891,
    -9.251753680039));
#1069 = CARTESIAN_POINT('',(-510.4513279799,231.37080363243,
    -9.251509730366));
#1070 = CARTESIAN_POINT('',(-510.4338638763,231.42928396696,
    -9.249077941153));
#1071 = CARTESIAN_POINT('',(-510.4207428693,231.48885247547,
    -9.24434240754));
#1072 = CARTESIAN_POINT('',(-510.412043192,231.54900223345,
    -9.237354830429));
#1073 = CARTESIAN_POINT('',(-510.407745,231.60923585825,-9.228209015927)
  );
#1074 = CARTESIAN_POINT('',(-510.407745,231.669083,-9.217031754985));
#1075 = ORIENTED_EDGE('',*,*,#1076,.F.);
#1076 = EDGE_CURVE('',#379,#960,#1077,.T.);
#1077 = LINE('',#1078,#1079);
#1078 = CARTESIAN_POINT('',(-510.407745,231.669083,20.));
#1079 = VECTOR('',#1080,1.);
#1080 = DIRECTION('',(-6.E-17,0.,-1.));
#1081 = ORIENTED_EDGE('',*,*,#378,.F.);
#1082 = ORIENTED_EDGE('',*,*,#1076,.T.);
#1083 = CYLINDRICAL_SURFACE('',#1084,1.);
#1084 = AXIS2_PLACEMENT_3D('',#1085,#1086,#1087);
#1085 = CARTESIAN_POINT('',(-511.407745,231.669083,20.));
#1086 = DIRECTION('',(-0.,-0.,-1.));
#1087 = DIRECTION('',(1.,0.,0.));
#1088 = ADVANCED_FACE('',(#1089),#1221,.F.);
#1089 = FACE_BOUND('',#1090,.F.);
#1090 = EDGE_LOOP('',(#1091,#1213,#1219,#1220));
#1091 = ORIENTED_EDGE('',*,*,#1092,.T.);
#1092 = EDGE_CURVE('',#1093,#1093,#1095,.T.);
#1093 = VERTEX_POINT('',#1094);
#1094 = CARTESIAN_POINT('',(-391.518372,232.380737,-8.048379826969));
#1095 = B_SPLINE_CURVE_WITH_KNOTS('',6,(#1096,#1097,#1098,#1099,#1100,
    #1101,#1102,#1103,#1104,#1105,#1106,#1107,#1108,#1109,#1110,#1111,
    #1112,#1113,#1114,#1115,#1116,#1117,#1118,#1119,#1120,#1121,#1122,
    #1123,#1124,#1125,#1126,#1127,#1128,#1129,#1130,#1131,#1132,#1133,
    #1134,#1135,#1136,#1137,#1138,#1139,#1140,#1141,#1142,#1143,#1144,
    #1145,#1146,#1147,#1148,#1149,#1150,#1151,#1152,#1153,#1154,#1155,
    #1156,#1157,#1158,#1159,#1160,#1161,#1162,#1163,#1164,#1165,#1166,
    #1167,#1168,#1169,#1170,#1171,#1172,#1173,#1174,#1175,#1176,#1177,
    #1178,#1179,#1180,#1181,#1182,#1183,#1184,#1185,#1186,#1187,#1188,
    #1189,#1190,#1191,#1192,#1193,#1194,#1195,#1196,#1197,#1198,#1199,
    #1200,#1201,#1202,#1203,#1204,#1205,#1206,#1207,#1208,#1209,#1210,
    #1211,#1212),.UNSPECIFIED.,.T.,.F.,(1,6,5,5,5,5,5,5,5,5,5,5,5,5,5,5,
    5,5,5,5,5,5,5,5,6,1),(-4.8702572867E-02,0.,2.731173136162E-02,
    7.500817506471E-02,0.116557036483,0.136509599262,0.171574763807,
    0.212519664629,0.241172706309,0.314436428066,0.386669435054,
    0.417472345376,0.463070919081,0.503557865037,0.526381403686,
    0.574950856997,0.623057537078,0.646362139572,0.686867837588,
    0.732484857912,0.763296443845,0.835539291018,0.918780857065,
    0.951297427133,1.,1.027311731362),.UNSPECIFIED.);
#1096 = CARTESIAN_POINT('',(-391.518372,232.380737,-8.048379826969));
#1097 = CARTESIAN_POINT('',(-391.518372,232.41036081011,-8.039424424843)
  );
#1098 = CARTESIAN_POINT('',(-391.5194250916,232.44013978287,
    -8.030987618391));
#1099 = CARTESIAN_POINT('',(-391.5215519253,232.47002448702,
    -8.023098267745));
#1100 = CARTESIAN_POINT('',(-391.5247700261,232.49996000097,
    -8.015785195792));
#1101 = CARTESIAN_POINT('',(-391.5290918848,232.52988613981,
    -8.009075952337));
#1102 = CARTESIAN_POINT('',(-391.5440078858,232.61186958087,
    -7.992376983096));
#1103 = CARTESIAN_POINT('',(-391.5568777514,232.66378361116,
    -7.983674380755));
#1104 = CARTESIAN_POINT('',(-391.5731618369,232.71512161721,
    -7.977024337182));
#1105 = CARTESIAN_POINT('',(-391.5928258524,232.76550878979,
    -7.972531091803));
#1106 = CARTESIAN_POINT('',(-391.6157590555,232.81456851312,
    -7.970253377281));
#1107 = CARTESIAN_POINT('',(-391.6644120822,232.90320057065,
    -7.970137110168));
#1108 = CARTESIAN_POINT('',(-391.6893960699,232.94318869807,
    -7.971764196569));
#1109 = CARTESIAN_POINT('',(-391.7165829645,232.98166283202,
    -7.975073385762));
#1110 = CARTESIAN_POINT('',(-391.7458077268,233.01842133492,
    -7.980032056424));
#1111 = CARTESIAN_POINT('',(-391.7768798661,233.05329916481,
    -7.986580049651));
#1112 = CARTESIAN_POINT('',(-391.8253021057,233.10195128027,
    -7.998504089531));
#1113 = CARTESIAN_POINT('',(-391.8413906136,233.11727246648,
    -8.002720433039));
#1114 = CARTESIAN_POINT('',(-391.8578358895,233.13211731938,
    -8.007275675504));
#1115 = CARTESIAN_POINT('',(-391.8746155736,233.14647436729,
    -8.012160138578));
#1116 = CARTESIAN_POINT('',(-391.8917073294,233.16033425285,
    -8.017363460606));
#1117 = CARTESIAN_POINT('',(-391.9396355823,233.19716100927,
    -8.032560013664));
#1118 = CARTESIAN_POINT('',(-391.9710774638,233.21907425709,
    -8.04319630827));
#1119 = CARTESIAN_POINT('',(-392.0032945556,233.23938989056,
    -8.054724329564));
#1120 = CARTESIAN_POINT('',(-392.0361714429,233.25808691692,
    -8.067081545273));
#1121 = CARTESIAN_POINT('',(-392.0695995144,233.27515846645,
    -8.080204970361));
#1122 = CARTESIAN_POINT('',(-392.1430399421,233.30864664656,
    -8.110182092431));
#1123 = CARTESIAN_POINT('',(-392.1832157716,233.32447314969,
    -8.127292013453));
#1124 = CARTESIAN_POINT('',(-392.2238497031,233.33809249383,
    -8.145267861996));
#1125 = CARTESIAN_POINT('',(-392.2647987211,233.34952633706,
    -8.164017258318));
#1126 = CARTESIAN_POINT('',(-392.3059342831,233.35880634756,
    -8.183453700136));
#1127 = CARTESIAN_POINT('',(-392.3759802762,233.37098005958,
    -8.217526302299));
#1128 = CARTESIAN_POINT('',(-392.4048530568,233.37495447245,
    -8.231851666656));
#1129 = CARTESIAN_POINT('',(-392.4337220318,233.37790401665,
    -8.2464478709));
#1130 = CARTESIAN_POINT('',(-392.4625504775,233.37984170004,
    -8.261289300447));
#1131 = CARTESIAN_POINT('',(-392.4913040307,233.38078097809,
    -8.276351771404));
#1132 = CARTESIAN_POINT('',(-392.5931980892,233.38062011885,
    -8.330633170199));
#1133 = CARTESIAN_POINT('',(-392.6657364796,233.37406767981,
    -8.370944891799));
#1134 = CARTESIAN_POINT('',(-392.7370465649,233.36130806715,
    -8.412176431339));
#1135 = CARTESIAN_POINT('',(-392.8066541967,233.34256544872,
    -8.4539950738));
#1136 = CARTESIAN_POINT('',(-392.8741155092,233.31805331275,
    -8.496099247002));
#1137 = CARTESIAN_POINT('',(-393.0029757399,233.25830842844,
    -8.579730530653));
#1138 = CARTESIAN_POINT('',(-393.0644344453,233.22323691154,
    -8.621249557026));
#1139 = CARTESIAN_POINT('',(-393.122965594,233.18294665945,
    -8.662500172501));
#1140 = CARTESIAN_POINT('',(-393.1781295419,233.13763512702,
    -8.703209435398));
#1141 = CARTESIAN_POINT('',(-393.2294603072,233.08752466946,
    -8.743094231791));
#1142 = CARTESIAN_POINT('',(-393.2965114491,233.00958020534,
    -8.798385529643));
#1143 = CARTESIAN_POINT('',(-393.315769295,232.9854553944,
    -8.814710078538));
#1144 = CARTESIAN_POINT('',(-393.3342009425,232.96052870827,
    -8.830805990792));
#1145 = CARTESIAN_POINT('',(-393.3517664579,232.93482422896,
    -8.846648581786));
#1146 = CARTESIAN_POINT('',(-393.3684248699,232.90836892657,
    -8.862212161077));
#1147 = CARTESIAN_POINT('',(-393.4073891672,232.84096272588,
    -8.900056767327));
#1148 = CARTESIAN_POINT('',(-393.4285640848,232.79915369312,
    -8.921973254553));
#1149 = CARTESIAN_POINT('',(-393.4475239224,232.75586312682,
    -8.943133279897));
#1150 = CARTESIAN_POINT('',(-393.4641279297,232.71120853925,
    -8.9634437827));
#1151 = CARTESIAN_POINT('',(-393.4782367031,232.6653314746,
    -8.982806959212));
#1152 = CARTESIAN_POINT('',(-393.4999146552,232.57673258218,
    -9.017384604558));
#1153 = CARTESIAN_POINT('',(-393.5080395402,232.53423392049,
    -9.032820677659));
#1154 = CARTESIAN_POINT('',(-393.5140023389,232.49102584206,
    -9.0473598717));
#1155 = CARTESIAN_POINT('',(-393.5177168538,232.44724762615,
    -9.060929486919));
#1156 = CARTESIAN_POINT('',(-393.5191097086,232.40305826703,
    -9.073457873645));
#1157 = CARTESIAN_POINT('',(-393.5175742231,232.33359580559,
    -9.091314989589));
#1158 = CARTESIAN_POINT('',(-393.5162661054,232.30848072275,
    -9.097400220656));
#1159 = CARTESIAN_POINT('',(-393.5141936682,232.28332419751,
    -9.103120917119));
#1160 = CARTESIAN_POINT('',(-393.5113497447,232.25816010755,
    -9.108465602289));
#1161 = CARTESIAN_POINT('',(-393.5077297482,232.2330239046,
    -9.113423567426));
#1162 = CARTESIAN_POINT('',(-393.4939723811,232.15459985132,
    -9.127691519802));
#1163 = CARTESIAN_POINT('',(-393.4810887155,232.10153457746,
    -9.135603161892));
#1164 = CARTESIAN_POINT('',(-393.4646649017,232.04912375266,
    -9.141622933195));
#1165 = CARTESIAN_POINT('',(-393.4447479887,231.9977427779,
    -9.14568004137));
#1166 = CARTESIAN_POINT('',(-393.4214554392,231.94776259536,
    -9.147736051313));
#1167 = CARTESIAN_POINT('',(-393.368762237,231.85177048051,
    -9.14784576331));
#1168 = CARTESIAN_POINT('',(-393.339416886,231.8057161401,
    -9.145937425916));
#1169 = CARTESIAN_POINT('',(-393.3071353721,231.76171768955,
    -9.142065876326));
#1170 = CARTESIAN_POINT('',(-393.2721605292,231.7200644242,
    -9.136268010118));
#1171 = CARTESIAN_POINT('',(-393.2347749648,231.68099068532,
    -9.128611817707));
#1172 = CARTESIAN_POINT('',(-393.1761571736,231.62708316998,
    -9.114626181945));
#1173 = CARTESIAN_POINT('',(-393.156533059,231.61013726559,
    -9.109647490087));
#1174 = CARTESIAN_POINT('',(-393.1364486856,231.59385725112,
    -9.104264701149));
#1175 = CARTESIAN_POINT('',(-393.1159384372,231.57825928512,
    -9.098489123425));
#1176 = CARTESIAN_POINT('',(-393.095036756,231.56335625354,
    -9.092332898993));
#1177 = CARTESIAN_POINT('',(-393.0368285767,231.52447940431,
    -9.074469830171));
#1178 = CARTESIAN_POINT('',(-392.9988002745,231.50192959937,
    -9.062019698083));
#1179 = CARTESIAN_POINT('',(-392.9598728229,231.48155941638,
    -9.048525909532));
#1180 = CARTESIAN_POINT('',(-392.9202194206,231.46339206219,
    -9.034059823094));
#1181 = CARTESIAN_POINT('',(-392.880003511,231.44742948392,
    -9.018693841506));
#1182 = CARTESIAN_POINT('',(-392.7936205539,231.41815077273,
    -8.984259290968));
#1183 = CARTESIAN_POINT('',(-392.7473433626,231.40542291506,
    -8.964968358549));
#1184 = CARTESIAN_POINT('',(-392.7007568676,231.39545601666,
    -8.944725646466));
#1185 = CARTESIAN_POINT('',(-392.6540550217,231.38820866388,
    -8.923628605189));
#1186 = CARTESIAN_POINT('',(-392.6074123706,231.383625495,-8.90177001639
    ));
#1187 = CARTESIAN_POINT('',(-392.5296239226,231.38030778214,
    -8.864015474002));
#1188 = CARTESIAN_POINT('',(-392.4983621181,231.38015791531,
    -8.848486994854));
#1189 = CARTESIAN_POINT('',(-392.4672460347,231.38117638257,
    -8.832677111705));
#1190 = CARTESIAN_POINT('',(-392.4363204336,231.3833431933,
    -8.816611466095));
#1191 = CARTESIAN_POINT('',(-392.4056271064,231.38663767492,
    -8.80031471003));
#1192 = CARTESIAN_POINT('',(-392.3038749365,231.40135686985,
    -8.745113676373));
#1193 = CARTESIAN_POINT('',(-392.2340429381,231.41775658566,
    -8.705280422953));
#1194 = CARTESIAN_POINT('',(-392.1661984782,231.43996715768,
    -8.664609040986));
#1195 = CARTESIAN_POINT('',(-392.1007802849,231.46771550942,
    -8.623382658083));
#1196 = CARTESIAN_POINT('',(-392.0381920465,231.50073689564,
    -8.581874435077));
#1197 = CARTESIAN_POINT('',(-391.9104049866,231.58262761831,
    -8.492509571054));
#1198 = CARTESIAN_POINT('',(-391.8462786978,231.63313235824,
    -8.444661861952));
#1199 = CARTESIAN_POINT('',(-391.7870130166,231.68992646461,
    -8.397212435258));
#1200 = CARTESIAN_POINT('',(-391.7332313202,231.75263362261,
    -8.350608436017));
#1201 = CARTESIAN_POINT('',(-391.6855941376,231.82082654827,
    -8.305353005026));
#1202 = CARTESIAN_POINT('',(-391.6288888235,231.92259873854,
    -8.245092284894));
#1203 = CARTESIAN_POINT('',(-391.614008421,231.95194543911,
    -8.228459816921));
#1204 = CARTESIAN_POINT('',(-391.6002200278,231.98201983616,
    -8.212157470766));
#1205 = CARTESIAN_POINT('',(-391.5875686376,232.01278613108,
    -8.196223043022));
#1206 = CARTESIAN_POINT('',(-391.5761004017,232.04420382605,
    -8.180696830444));
#1207 = CARTESIAN_POINT('',(-391.550528729,232.124192384,-8.143042340398
    ));
#1208 = CARTESIAN_POINT('',(-391.5379552874,232.17351544224,
    -8.121475355333));
#1209 = CARTESIAN_POINT('',(-391.5282984997,232.22404384598,
    -8.101063166097));
#1210 = CARTESIAN_POINT('',(-391.5217206951,232.27558728175,
    -8.081965276063));
#1211 = CARTESIAN_POINT('',(-391.518372,232.32791239336,-8.064348927254)
  );
#1212 = CARTESIAN_POINT('',(-391.518372,232.380737,-8.048379826969));
#1213 = ORIENTED_EDGE('',*,*,#1214,.F.);
#1214 = EDGE_CURVE('',#408,#1093,#1215,.T.);
#1215 = LINE('',#1216,#1217);
#1216 = CARTESIAN_POINT('',(-391.518372,232.380737,20.));
#1217 = VECTOR('',#1218,1.);
#1218 = DIRECTION('',(-6.E-17,0.,-1.));
#1219 = ORIENTED_EDGE('',*,*,#407,.F.);
#1220 = ORIENTED_EDGE('',*,*,#1214,.T.);
#1221 = CYLINDRICAL_SURFACE('',#1222,1.);
#1222 = AXIS2_PLACEMENT_3D('',#1223,#1224,#1225);
#1223 = CARTESIAN_POINT('',(-392.518372,232.380737,20.));
#1224 = DIRECTION('',(-0.,-0.,-1.));
#1225 = DIRECTION('',(1.,0.,0.));
#1226 = ADVANCED_FACE('',(#1227,#1238),#1241,.T.);
#1227 = FACE_BOUND('',#1228,.T.);
#1228 = EDGE_LOOP('',(#1229,#1230,#1231));
#1229 = ORIENTED_EDGE('',*,*,#714,.F.);
#1230 = ORIENTED_EDGE('',*,*,#545,.T.);
#1231 = ORIENTED_EDGE('',*,*,#1232,.F.);
#1232 = EDGE_CURVE('',#689,#538,#1233,.T.);
#1233 = CIRCLE('',#1234,10.);
#1234 = AXIS2_PLACEMENT_3D('',#1235,#1236,#1237);
#1235 = CARTESIAN_POINT('',(-506.931671,126.947678,0.));
#1236 = DIRECTION('',(1.,0.,0.));
#1237 = DIRECTION('',(0.,-1.1E-16,1.));
#1238 = FACE_BOUND('',#1239,.T.);
#1239 = EDGE_LOOP('',(#1240));
#1240 = ORIENTED_EDGE('',*,*,#729,.T.);
#1241 = SPHERICAL_SURFACE('',#1242,10.);
#1242 = AXIS2_PLACEMENT_3D('',#1243,#1244,#1245);
#1243 = CARTESIAN_POINT('',(-506.931671,126.947678,0.));
#1244 = DIRECTION('',(0.,0.707106781187,-0.707106781187));
#1245 = DIRECTION('',(0.57735026919,0.57735026919,0.57735026919));
#1246 = ADVANCED_FACE('',(#1247),#1272,.F.);
#1247 = FACE_BOUND('',#1248,.F.);
#1248 = EDGE_LOOP('',(#1249,#1250,#1258,#1266));
#1249 = ORIENTED_EDGE('',*,*,#537,.T.);
#1250 = ORIENTED_EDGE('',*,*,#1251,.T.);
#1251 = EDGE_CURVE('',#538,#1252,#1254,.T.);
#1252 = VERTEX_POINT('',#1253);
#1253 = CARTESIAN_POINT('',(-396.931671,126.947678,-10.));
#1254 = LINE('',#1255,#1256);
#1255 = CARTESIAN_POINT('',(-506.931671,126.947678,-10.));
#1256 = VECTOR('',#1257,1.);
#1257 = DIRECTION('',(1.,0.,0.));
#1258 = ORIENTED_EDGE('',*,*,#1259,.T.);
#1259 = EDGE_CURVE('',#1252,#1260,#1262,.T.);
#1260 = VERTEX_POINT('',#1261);
#1261 = CARTESIAN_POINT('',(-396.931671,229.947678,-10.));
#1262 = LINE('',#1263,#1264);
#1263 = CARTESIAN_POINT('',(-396.931671,126.947678,-10.));
#1264 = VECTOR('',#1265,1.);
#1265 = DIRECTION('',(0.,1.,0.));
#1266 = ORIENTED_EDGE('',*,*,#1267,.T.);
#1267 = EDGE_CURVE('',#1260,#529,#1268,.T.);
#1268 = LINE('',#1269,#1270);
#1269 = CARTESIAN_POINT('',(-396.931671,229.947678,-10.));
#1270 = VECTOR('',#1271,1.);
#1271 = DIRECTION('',(-1.,0.,0.));
#1272 = PLANE('',#1273);
#1273 = AXIS2_PLACEMENT_3D('',#1274,#1275,#1276);
#1274 = CARTESIAN_POINT('',(-451.931671,178.447678,-10.));
#1275 = DIRECTION('',(0.,0.,1.));
#1276 = DIRECTION('',(1.,0.,0.));
#1277 = ADVANCED_FACE('',(#1278,#1289),#1292,.T.);
#1278 = FACE_BOUND('',#1279,.T.);
#1279 = EDGE_LOOP('',(#1280,#1281,#1288));
#1280 = ORIENTED_EDGE('',*,*,#644,.T.);
#1281 = ORIENTED_EDGE('',*,*,#1282,.T.);
#1282 = EDGE_CURVE('',#597,#529,#1283,.T.);
#1283 = CIRCLE('',#1284,10.);
#1284 = AXIS2_PLACEMENT_3D('',#1285,#1286,#1287);
#1285 = CARTESIAN_POINT('',(-506.931671,229.947678,0.));
#1286 = DIRECTION('',(-1.,0.,0.));
#1287 = DIRECTION('',(0.,1.1E-16,1.));
#1288 = ORIENTED_EDGE('',*,*,#528,.F.);
#1289 = FACE_BOUND('',#1290,.T.);
#1290 = EDGE_LOOP('',(#1291));
#1291 = ORIENTED_EDGE('',*,*,#959,.T.);
#1292 = SPHERICAL_SURFACE('',#1293,10.);
#1293 = AXIS2_PLACEMENT_3D('',#1294,#1295,#1296);
#1294 = CARTESIAN_POINT('',(-506.931671,229.947678,0.));
#1295 = DIRECTION('',(0.,0.707106781187,0.707106781187));
#1296 = DIRECTION('',(0.57735026919,-0.57735026919,0.57735026919));
#1297 = ADVANCED_FACE('',(#1298,#1315),#1318,.T.);
#1298 = FACE_BOUND('',#1299,.T.);
#1299 = EDGE_LOOP('',(#1300,#1301,#1308));
#1300 = ORIENTED_EDGE('',*,*,#581,.F.);
#1301 = ORIENTED_EDGE('',*,*,#1302,.T.);
#1302 = EDGE_CURVE('',#574,#1260,#1303,.T.);
#1303 = CIRCLE('',#1304,10.);
#1304 = AXIS2_PLACEMENT_3D('',#1305,#1306,#1307);
#1305 = CARTESIAN_POINT('',(-396.931671,229.947678,0.));
#1306 = DIRECTION('',(-0.,1.,0.));
#1307 = DIRECTION('',(1.1E-16,0.,1.));
#1308 = ORIENTED_EDGE('',*,*,#1309,.F.);
#1309 = EDGE_CURVE('',#565,#1260,#1310,.T.);
#1310 = CIRCLE('',#1311,10.);
#1311 = AXIS2_PLACEMENT_3D('',#1312,#1313,#1314);
#1312 = CARTESIAN_POINT('',(-396.931671,229.947678,0.));
#1313 = DIRECTION('',(-1.,0.,0.));
#1314 = DIRECTION('',(0.,1.1E-16,1.));
#1315 = FACE_BOUND('',#1316,.T.);
#1316 = EDGE_LOOP('',(#1317));
#1317 = ORIENTED_EDGE('',*,*,#1092,.T.);
#1318 = SPHERICAL_SURFACE('',#1319,10.);
#1319 = AXIS2_PLACEMENT_3D('',#1320,#1321,#1322);
#1320 = CARTESIAN_POINT('',(-396.931671,229.947678,0.));
#1321 = DIRECTION('',(0.,-0.707106781187,-0.707106781187));
#1322 = DIRECTION('',(-0.57735026919,-0.57735026919,0.57735026919));
#1323 = ADVANCED_FACE('',(#1324),#1330,.T.);
#1324 = FACE_BOUND('',#1325,.T.);
#1325 = EDGE_LOOP('',(#1326,#1327,#1328,#1329));
#1326 = ORIENTED_EDGE('',*,*,#596,.F.);
#1327 = ORIENTED_EDGE('',*,*,#1309,.T.);
#1328 = ORIENTED_EDGE('',*,*,#1267,.T.);
#1329 = ORIENTED_EDGE('',*,*,#1282,.F.);
#1330 = CYLINDRICAL_SURFACE('',#1331,10.);
#1331 = AXIS2_PLACEMENT_3D('',#1332,#1333,#1334);
#1332 = CARTESIAN_POINT('',(-396.931671,229.947678,0.));
#1333 = DIRECTION('',(-1.,0.,0.));
#1334 = DIRECTION('',(0.,1.1E-16,1.));
#1335 = ADVANCED_FACE('',(#1336),#1348,.T.);
#1336 = FACE_BOUND('',#1337,.T.);
#1337 = EDGE_LOOP('',(#1338,#1339,#1346,#1347));
#1338 = ORIENTED_EDGE('',*,*,#621,.F.);
#1339 = ORIENTED_EDGE('',*,*,#1340,.T.);
#1340 = EDGE_CURVE('',#622,#1252,#1341,.T.);
#1341 = CIRCLE('',#1342,10.);
#1342 = AXIS2_PLACEMENT_3D('',#1343,#1344,#1345);
#1343 = CARTESIAN_POINT('',(-396.931671,126.947678,0.));
#1344 = DIRECTION('',(-0.,1.,0.));
#1345 = DIRECTION('',(1.1E-16,0.,1.));
#1346 = ORIENTED_EDGE('',*,*,#1259,.T.);
#1347 = ORIENTED_EDGE('',*,*,#1302,.F.);
#1348 = CYLINDRICAL_SURFACE('',#1349,10.);
#1349 = AXIS2_PLACEMENT_3D('',#1350,#1351,#1352);
#1350 = CARTESIAN_POINT('',(-396.931671,126.947678,0.));
#1351 = DIRECTION('',(0.,1.,0.));
#1352 = DIRECTION('',(1.1E-16,0.,1.));
#1353 = ADVANCED_FACE('',(#1354,#1365),#1368,.T.);
#1354 = FACE_BOUND('',#1355,.T.);
#1355 = EDGE_LOOP('',(#1356,#1357,#1364));
#1356 = ORIENTED_EDGE('',*,*,#672,.F.);
#1357 = ORIENTED_EDGE('',*,*,#1358,.T.);
#1358 = EDGE_CURVE('',#665,#1252,#1359,.T.);
#1359 = CIRCLE('',#1360,10.);
#1360 = AXIS2_PLACEMENT_3D('',#1361,#1362,#1363);
#1361 = CARTESIAN_POINT('',(-396.931671,126.947678,0.));
#1362 = DIRECTION('',(1.,0.,0.));
#1363 = DIRECTION('',(0.,-1.1E-16,1.));
#1364 = ORIENTED_EDGE('',*,*,#1340,.F.);
#1365 = FACE_BOUND('',#1366,.T.);
#1366 = EDGE_LOOP('',(#1367));
#1367 = ORIENTED_EDGE('',*,*,#844,.T.);
#1368 = SPHERICAL_SURFACE('',#1369,10.);
#1369 = AXIS2_PLACEMENT_3D('',#1370,#1371,#1372);
#1370 = CARTESIAN_POINT('',(-396.931671,126.947678,0.));
#1371 = DIRECTION('',(-0.707106781187,-0.,-0.707106781187));
#1372 = DIRECTION('',(-0.57735026919,0.57735026919,0.57735026919));
#1373 = ADVANCED_FACE('',(#1374),#1380,.T.);
#1374 = FACE_BOUND('',#1375,.T.);
#1375 = EDGE_LOOP('',(#1376,#1377,#1378,#1379));
#1376 = ORIENTED_EDGE('',*,*,#688,.F.);
#1377 = ORIENTED_EDGE('',*,*,#1232,.T.);
#1378 = ORIENTED_EDGE('',*,*,#1251,.T.);
#1379 = ORIENTED_EDGE('',*,*,#1358,.F.);
#1380 = CYLINDRICAL_SURFACE('',#1381,10.);
#1381 = AXIS2_PLACEMENT_3D('',#1382,#1383,#1384);
#1382 = CARTESIAN_POINT('',(-506.931671,126.947678,0.));
#1383 = DIRECTION('',(1.,0.,0.));
#1384 = DIRECTION('',(0.,-1.1E-16,1.));
#1385 = ( GEOMETRIC_REPRESENTATION_CONTEXT(3) 
GLOBAL_UNCERTAINTY_ASSIGNED_CONTEXT((#1389)) 
GLOBAL_UNIT_ASSIGNED_CONTEXT((#1386,#1387,#1388)) REPRESENTATION_CONTEXT
('Context #1','3D Context with UNIT and UNCERTAINTY') );
#1386 = ( LENGTH_UNIT() NAMED_UNIT(*) SI_UNIT(.MILLI.,.METRE.) );
#1387 = ( NAMED_UNIT(*) PLANE_ANGLE_UNIT() SI_UNIT($,.RADIAN.) );
#1388 = ( NAMED_UNIT(*) SI_UNIT($,.STERADIAN.) SOLID_ANGLE_UNIT() );
#1389 = UNCERTAINTY_MEASURE_WITH_UNIT(LENGTH_MEASURE(1.E-07),#1386,
  'distance_accuracy_value','confusion accuracy');
#1390 = PRODUCT_RELATED_PRODUCT_CATEGORY('part',$,(#7));
ENDSEC;
END-ISO-10303-21;
